<?xml version="1.0" standalone="no"?>
<!DOCTYPE svg PUBLIC "-//W3C//DTD SVG 1.1//EN" "http://www.w3.org/Graphics/SVG/1.1/DTD/svg11.dtd" >
<svg xmlns="http://www.w3.org/2000/svg">
<metadata>Generated by IcoMoon</metadata>
<defs>
<font id="epic-v2" horiz-adv-x="1024">
<font-face units-per-em="1024" ascent="960" descent="-64" />
<missing-glyph horiz-adv-x="1024" />
<glyph unicode="&#x20;" horiz-adv-x="512" d="" />
<glyph unicode="&#xe900;" glyph-name="battles" horiz-adv-x="838" d="M785.455 756.133c-180.131 0-323.293 182.747-324.706 184.644-19.793 25.631-63.885 25.631-83.678 0-1.414-1.897-144.575-184.644-324.706-184.644-28.905 0-52.364-22.965-52.364-51.261v-358.83c0-195.156 354.135-383.334 394.508-404.15 7.645-3.947 16.023-5.893 24.401-5.893s16.756 1.946 24.401 5.893c40.371 20.866 394.508 208.994 394.508 404.15v358.83c0 28.296-23.459 51.261-52.364 51.261zM467.554 173.238l-97.237 38.037 76.031 186.028h-216.838l142.639 279.221 93.679-45.878-66.922-130.82h202.071l-133.423-326.588z" />
<glyph unicode="&#xe901;" glyph-name="upgrs" d="M687.787 877.716l-464.682-237.915-184.704 90.882 456.489 225.413c10.24 5.205 22.528 5.205 33.28 0l159.617-78.38zM985.088 730.683l-472.834-234.245-177.064 87.256-25.6 13.014 465.193 237.871 25.6-12.971 184.705-90.925zM474.368 428.939l-0.512-492.939-452.864 236.334c-12.8 6.744-20.992 20.27-20.992 34.816v456.033l191.915-94.552v-166.234c0-21.289 17.408-38.956 38.4-38.956s38.4 17.666 38.4 38.956v127.79l25.6-12.459 180.053-88.791zM1023.488 662.671l-472.318-233.22-0.512-492.939 473.342 247.174-0.512 478.985z" />
<glyph unicode="&#xe902;" glyph-name="contracts" horiz-adv-x="922" d="M335.127 960h-251.345c-46.205 0-83.782-38.315-83.782-85.334v-298.666c0-47.018 37.576-85.334 83.782-85.334h251.345c46.206 0 83.782 38.315 83.782 85.334v298.666c0 47.019-37.576 85.334-83.782 85.334zM83.782 789.334h167.564v-42.667h-167.564v42.667zM335.127 618.666h-251.345v42.667h251.345v-42.667zM837.816 960h-251.346c-46.203 0-83.78-38.315-83.78-85.334v-298.666c0-47.018 37.577-85.334 83.78-85.334h251.346c46.208 0 83.784 38.315 83.784 85.334v298.666c0 47.019-37.576 85.334-83.784 85.334zM586.47 789.334h167.567v-42.667h-167.567v42.667zM837.816 618.666h-251.346v42.667h251.346v-42.667zM335.127 405.335h-251.345c-46.205 0-83.782-38.318-83.782-85.335v-298.665c0-47.063 37.576-85.335 83.782-85.335h251.345c46.206 0 83.782 38.272 83.782 85.335v298.665c0 47.017-37.576 85.335-83.782 85.335zM83.782 234.665h167.564v-42.665h-167.564v42.665zM335.127 64h-251.345v42.665h251.345v-42.665zM837.816 405.335h-251.346c-46.203 0-83.78-38.318-83.78-85.335v-298.665c0-47.063 37.577-85.335 83.78-85.335h251.346c46.208 0 83.784 38.272 83.784 85.335v298.665c0 47.017-37.576 85.335-83.784 85.335zM586.47 234.665h167.567v-42.665h-167.567v42.665zM837.816 64h-251.346v42.665h251.346v-42.665z" />
<glyph unicode="&#xe903;" glyph-name="dollar2" horiz-adv-x="542" d="M369.53 269.649c0 28.937-8.118 51.881-24.353 68.819-15.882 17.3-43.059 33.179-81.53 47.65s-71.647 28.765-99.529 42.882c-27.882 14.47-51.882 30.883-72 49.235-19.765 18.706-35.294 40.588-46.588 65.647-10.941 25.058-16.412 54.882-16.412 89.47 0 59.647 19.059 108.53 57.177 146.647s88.765 60.353 151.941 66.706v113.294h84.706v-114.883c62.471-8.823 111.353-34.941 146.647-78.353 35.294-43.059 52.941-99 52.941-167.823h-152.999c0 42.353-8.824 73.941-26.471 94.765-17.294 21.176-40.588 31.765-69.882 31.765-28.941 0-51.353-8.294-67.235-24.883-15.883-16.235-23.824-38.823-23.824-67.765 0-26.823 7.764-48.353 23.294-64.588s44.294-32.823 86.294-49.765c42.353-16.941 77.118-33 104.294-48.176 27.176-14.824 50.118-31.765 68.824-50.824 18.705-18.706 33-40.235 42.882-64.588 9.882-23.998 14.823-52.061 14.823-84.179 0-60-18.705-108.701-56.118-146.113s-88.941-59.47-154.588-66.181v-105.352h-84.176v104.821c-72.353 7.764-128.471 33.352-168.353 76.77-39.529 43.761-59.294 101.822-59.294 174.176h153c0-42.002 9.882-74.294 29.647-96.882 20.117-22.239 48.882-33.358 86.294-33.358 31.059 0 55.589 8.12 73.588 24.353 18 16.589 27 38.828 27 66.711z" />
<glyph unicode="&#xe904;" glyph-name="exit" d="M916.736 186.048h-81.99c-5.6 0-10.848-2.502-14.349-6.906-8.16-10.125-16.909-19.885-26.125-29.171-37.683-38.515-82.317-69.203-131.437-90.374-50.893-21.946-105.59-33.203-160.835-33.101-55.866 0-109.982 11.187-160.833 33.101-49.121 21.171-93.758 51.859-131.442 90.374-37.751 38.374-67.853 83.866-88.638 133.952-21.577 51.912-32.424 107.041-32.424 164.076s10.963 112.163 32.424 164.077c20.76 50.129 50.617 95.256 88.638 133.953s82.224 69.18 131.442 90.374c50.851 21.909 104.967 33.101 160.833 33.101s109.982-11.073 160.835-33.101c49.216-21.194 93.421-51.676 131.437-90.374 9.216-9.406 17.85-19.17 26.125-29.172 3.501-4.406 8.864-6.906 14.349-6.906h81.99c7.347 0 11.898 8.335 7.814 14.646-89.453 141.931-245.971 235.877-423.833 235.4-279.444-0.714-503.491-232.305-500.691-517.238 2.799-280.412 226.495-506.76 501.975-506.76 177.391 0 333.212 93.824 422.55 235.398 3.968 6.31-0.467 14.65-7.814 14.65zM1020.422 455.501l-165.498 133.357c-6.182 5.001-15.162 0.476-15.162-7.501v-90.493h-366.22c-5.132 0-9.331-4.286-9.331-9.525v-66.679c0-5.239 4.199-9.526 9.331-9.526h366.22v-90.491c0-7.981 9.094-12.506 15.162-7.501l165.498 133.356c1.114 0.891 2.016 2.029 2.637 3.329s0.941 2.726 0.941 4.172c0 1.446-0.32 2.872-0.941 4.172s-1.523 2.438-2.637 3.329z" />
<glyph unicode="&#xe905;" glyph-name="faq" horiz-adv-x="1280" d="M178 378.966v-164.918c0-42.848 24.489-82.758 63.671-103.296l306.11-160.224c36.733-19.373 80.813-19.373 117.544 0l306.112 160.224c39.181 20.538 63.674 60.448 63.674 103.296v164.918l-369.786-193.679c-36.73-19.366-80.81-19.366-117.544 0l-369.781 193.679zM547.784 945.914l-516.102-269.976c-42.243-22.302-42.243-80.993 0-103.295l516.102-269.975c36.733-19.366 80.813-19.366 117.547 0l492.224 257.65v-346.86c0-32.282 27.552-58.688 61.222-58.688s61.222 26.406 61.222 58.688v376.205c0 21.715-12.243 41.083-31.834 51.647l-582.835 304.603c-36.734 18.781-80.813 18.781-117.547 0z" />
<glyph unicode="&#xe906;" glyph-name="fire" horiz-adv-x="768" d="M735.38 496.586c-21.176 50.009-51.963 94.895-90.435 131.848l-31.749 30.559c-1.075 1.009-2.371 1.725-3.773 2.086-1.408 0.36-2.872 0.353-4.27-0.019-1.403-0.373-2.693-1.101-3.763-2.12s-1.884-2.297-2.371-3.724l-14.182-42.69c-8.837-26.782-25.093-54.136-48.113-81.032-1.526-1.717-3.272-2.174-4.47-2.289-1.203-0.114-3.057 0.115-4.69 1.717-1.531 1.374-2.294 3.433-2.181 5.494 4.035 68.9-15.602 146.613-58.584 231.193-35.564 70.274-84.982 125.096-146.727 163.323l-45.054 27.812c-5.891 3.662-13.418-1.145-13.091-8.355l2.4-54.937c1.636-37.54-2.509-70.731-12.327-98.314-12-33.763-29.236-65.123-51.273-93.278-15.335-19.567-32.717-37.265-51.818-52.763-46.003-37.102-83.409-84.641-109.418-139.059-25.945-54.893-39.459-115.329-39.491-176.6 0-54.021 10.145-106.327 30.218-155.653 19.382-47.493 47.352-90.598 82.363-126.93 35.345-36.623 76.364-65.464 122.073-85.494 47.346-20.828 97.527-31.36 149.345-31.36s102 10.532 149.346 31.247c45.594 19.912 87.060 48.947 122.071 85.494 35.348 36.623 63.058 79.432 82.365 126.925 20.040 49.198 30.326 102.159 30.218 155.658 0 55.849-10.911 110.1-32.62 161.262z" />
<glyph unicode="&#xe907;" glyph-name="ruble" horiz-adv-x="945" d="M568.385 70.309h-220.154v-134.309h-207.692v134.309h-140.538v168.229h140.538v52.615h-140.538v168.231h140.538v484.615h391.846c75.693 0 142.154-13.615 199.385-40.846s101.538-66.231 132.92-117c31.846-50.308 47.774-107.77 47.774-172.385 0-99.692-33.926-178.385-101.77-236.077-67.386-57.692-161.308-86.538-281.77-86.538h-180.692v-52.615h220.154v-168.229zM348.231 459.385h179.308c116.307 0 174.461 51 174.461 153 0 48.462-14.769 87.462-44.308 117.001-29.538 29.999-70.385 45.23-122.538 45.692h-186.923v-315.692z" />
<glyph unicode="&#xe908;" glyph-name="top" horiz-adv-x="1078" d="M538.799 120.983l300.261-180.687c22.070-13.323 49.368 6.37 43.563 31.27l-79.57 340.534 264.839 228.755c19.165 16.795 9.291 48.647-16.842 50.963l-349.049 29.536-136.488 320.839c-9.868 23.744-43.556 23.744-53.429 0l-136.484-320.839-349.049-29.536c-25.554-2.316-36.008-34.169-16.262-50.963l264.836-228.755-79.567-340.534c-5.808-24.899 21.489-44.593 43.559-31.27l299.683 180.687z" />
<glyph unicode="&#xe909;" glyph-name="upgrades" horiz-adv-x="791" d="M776.592 21.332h-764.723v-85.332h764.723v85.332zM470.705 405.332h-152.947v-341.332h152.947v341.332zM700.118 576h-152.944v-512h152.944v512zM241.287 234.668h-152.944v-170.668h152.944v170.668zM77.137 332.46l431.8 481.834v-110.294h76.474v256h-229.418v-85.333h98.878l-431.798-481.879 54.064-60.328z" />
<glyph unicode="&#xe90a;" glyph-name="volume-off" horiz-adv-x="1280" d="M412.769 647.428l235.859 117.931v-634.716l-235.859 117.926v398.858zM339.875 742.835l426.691 213.344v-1016.359l-426.691 213.344h-221.941c-65.133 0-117.934 52.8-117.934 117.933v353.804c0 65.133 52.801 117.934 117.934 117.934h221.941zM294.833 624.902h-176.901v-353.804h176.901v353.804zM842.803 583.206l83.392 83.392 135.206-135.205 135.206 135.205 83.392-83.392-135.206-135.205 135.206-135.207-83.392-83.392-135.206 135.207-135.206-135.207-83.392 83.392 135.206 135.207-135.206 135.205z" />
<glyph unicode="&#xe90b;" glyph-name="volume-on" horiz-adv-x="1280" d="M407.266 648.948l232.676 118.796v-639.488l-232.676 118.797v401.895zM335.303 745.052l420.998 214.948v-1024l-420.998 214.95h-218.941c-64.265 0-116.362 53.197-116.362 118.816v356.465c0 65.622 52.097 118.82 116.362 118.82h218.941zM290.874 626.231h-174.543v-356.465h174.543v356.465zM1086.784 955.559c118.368-120.248 193.21-303.669 193.21-507.559s-74.842-387.309-193.21-507.558l-91.693 74.899c101.562 96.774 168.544 253.702 168.544 432.659 0 178.954-66.982 335.884-168.544 432.657l91.693 74.902zM1047.264 448c0 143.219-54.406 272.552-141.107 360.015l-91.776-74.975c70.394-64.729 116.518-167.744 116.518-285.039s-46.125-220.314-116.518-285.037l91.776-74.976c86.701 87.462 141.107 216.794 141.107 360.013z" />
<glyph unicode="&#xe90c;" glyph-name="plus" d="M639.748-64h-257.509v384.252h-382.239v253.485h382.239v386.263h257.509v-386.263h384.252v-253.485h-384.252v-384.252z" />
<glyph unicode="&#xe90d;" glyph-name="profile" horiz-adv-x="964" d="M481.882 477.941c133.066 0 240.941 107.873 240.941 240.941s-107.875 240.941-240.941 240.941c-133.068 0-240.941-107.873-240.941-240.941s107.873-240.941 240.941-240.941zM481.882 417.706c-283.708 0-481.882-148.599-481.882-361.41v-60.235h963.765v60.235c0 212.811-198.114 361.41-481.882 361.41z" />
<glyph unicode="&#xe90e;" glyph-name="close" d="M1023.949 901.489l-965.437-965.437-58.511 58.51 965.439 965.439 58.51-58.511zM0.002 901.489l965.437-965.437 58.51 58.51-965.436 965.439-58.511-58.511z" />
<glyph unicode="&#xe90f;" glyph-name="crown" horiz-adv-x="1152" d="M1134.202 775.698l-280.25-167.107-268.725 346.896c-1.081 1.396-2.483 2.529-4.095 3.31s-3.39 1.187-5.193 1.187c-1.803 0-3.581-0.406-5.194-1.187s-3.014-1.914-4.095-3.31l-268.582-346.896-280.391 167.107c-8.209 4.878-18.866-1.672-17.569-11.011l110.025-809.193c1.585-11.008 11.377-19.507 23.042-19.507h885.814c11.52 0 21.459 8.358 22.899 19.507l110.022 809.193c1.152 9.338-9.357 15.889-17.709 11.011zM576.010 137.792c-89.431 0-162.157 70.387-162.157 156.934 0 86.55 72.726 156.932 162.157 156.932s162.159-70.382 162.159-156.932c0-86.547-72.73-156.934-162.159-156.934zM576.010 362.044c-38.307 0-69.414-30.104-69.414-67.317 0-37.075 31.107-67.315 69.414-67.315s69.417 30.106 69.417 67.315c0 37.073-31.11 67.317-69.417 67.317z" />
<glyph unicode="&#xe910;" glyph-name="clip" horiz-adv-x="896" d="M802.291 866.294c-124.858 124.941-328.18 124.941-452.904 0l-345.94-345.909c-2.253-2.255-3.446-5.306-3.446-8.489s1.193-6.234 3.446-8.488l48.909-48.942c2.236-2.227 5.262-3.478 8.417-3.478s6.181 1.251 8.416 3.478l345.94 345.909c42.944 42.973 100.070 66.582 160.776 66.582s117.829-23.609 160.645-66.582c42.944-42.973 66.534-100.138 66.534-160.752 0-60.746-23.59-117.779-66.534-160.753l-409.695-409.84c-53.415-53.453-140.232-53.453-193.647 0-25.846 25.862-40.029 60.218-40.029 96.826s14.182 70.957 40.029 96.819l349.784 349.891c8.881 8.753 20.545 13.661 33.004 13.661h0.132c12.46 0 23.99-4.908 32.739-13.661 8.881-8.886 13.652-20.559 13.652-33.026 0-12.335-4.904-24.007-13.652-32.761l-285.898-285.825c-2.253-2.253-3.446-5.306-3.446-8.486 0-3.187 1.193-6.234 3.446-8.493l48.909-48.941c2.236-2.227 5.261-3.475 8.417-3.475s6.18 1.248 8.416 3.475l285.765 285.959c26.376 26.394 40.827 61.409 40.827 98.68s-14.586 72.418-40.827 98.68c-54.476 54.513-143.015 54.38-197.491 0l-33.931-34.087-315.72-315.801c-21.428-21.315-38.414-46.678-49.973-74.614s-17.459-57.894-17.36-88.128c0-61.408 23.991-119.104 67.333-162.477 44.932-44.832 103.782-67.245 162.632-67.245s117.699 22.413 162.499 67.245l409.827 409.839c60.307 60.481 93.709 140.99 93.709 226.539 0.134 85.681-33.267 166.19-93.709 226.671z" />
<glyph unicode="&#xe911;" glyph-name="instagram" d="M697.247 750.753c0-34.021 27.637-61.603 61.736-61.603s61.742 27.582 61.742 61.603c0 34.023-27.643 61.605-61.742 61.605s-61.736-27.582-61.736-61.605zM312.838 476.718c0 94.509 76.785 171.122 171.502 171.122 94.715 0 171.504-76.613 171.504-171.122 0-94.508-76.789-171.119-171.504-171.119-94.717 0-171.502 76.611-171.502 171.119zM484.341 213.1c-145.916 0-264.204 118.029-264.204 263.621s118.288 263.617 264.204 263.617c145.915 0 264.203-118.025 264.203-263.617s-118.288-263.621-264.203-263.621zM902.009 891.921c-20.701 20.703-40.41 33.526-68.026 44.257-20.852 8.104-52.181 17.741-109.864 20.373-62.389 2.846-81.101 3.448-239.080 3.448s-176.692-0.602-239.082-3.448c-57.685-2.632-89.012-12.269-109.861-20.373-27.618-10.732-47.326-23.554-68.030-44.257s-33.526-40.415-44.26-68.030c-8.102-20.848-17.739-52.178-20.371-109.862-2.846-62.388-3.448-81.101-3.448-239.080 0-157.983 0.602-176.69 3.448-239.084 2.632-57.684 12.269-89.013 20.371-109.859 10.734-27.616 23.556-47.33 44.26-68.031 20.704-20.706 40.412-33.528 68.030-44.258 20.849-8.1 52.176-17.742 109.863-20.372 62.379-2.846 81.089-3.449 239.080-3.449s176.703 0.604 239.080 3.449c57.684 2.63 89.013 12.272 109.864 20.372 27.616 10.73 47.325 23.552 68.031 44.258 20.701 20.701 33.523 40.416 44.258 68.031 8.1 20.846 17.737 52.175 20.372 109.859 2.846 62.394 3.449 81.101 3.449 239.084 0 157.979-0.604 176.692-3.449 239.080-2.635 57.684-12.272 89.014-20.372 109.862-10.736 27.616-23.557 47.326-44.264 68.030z" />
<glyph unicode="&#xe912;" glyph-name="youtube" d="M388.585 343.824l-0.031 273.894 264.642-137.419-264.611-136.474zM969.675 665.177c0 0-9.581 67.171-38.934 96.751-37.251 38.84-79.004 39.023-98.135 41.277-137.065 9.87-342.662 9.87-342.662 9.87h-0.432c0 0-205.596 0-342.662-9.87-19.161-2.254-60.881-2.437-98.162-41.277-29.354-29.58-38.904-96.751-38.904-96.751s-9.795-78.9-9.795-157.769v-73.964c0-78.9 9.795-157.77 9.795-157.77s9.55-67.17 38.904-96.75c37.281-38.841 86.225-37.621 108.018-41.672 78.358-7.493 333.024-9.808 333.024-9.808s205.811 0.303 342.875 10.173c19.131 2.284 60.883 2.467 98.135 41.307 29.353 29.58 38.934 96.75 38.934 96.75s9.795 78.87 9.795 157.77v73.964c0 78.869-9.795 157.769-9.795 157.769z" />
<glyph unicode="&#xe913;" glyph-name="vk" d="M480.965 204.481h58.765c0 0 17.736 1.843 26.796 11.104 8.364 8.536 8.086 24.523 8.086 24.523s-1.143 74.842 35.439 85.885c36.065 10.876 82.403-72.339 131.486-104.342 37.138-24.224 65.36-18.919 65.36-18.919l131.273 1.749c0 0 68.657 4.018 36.098 55.267-2.671 4.186-18.985 37.933-97.604 107.243-82.334 72.539-71.295 60.806 27.873 186.307 60.359 76.395 84.517 123.062 76.952 143.034-7.184 19.049-51.581 14.007-51.581 14.007l-147.829-0.857c0 0-10.969 1.417-19.091-3.197-7.913-4.515-13.017-15.062-13.017-15.062s-23.429-59.125-54.6-109.418c-65.81-106.122-92.156-111.725-102.916-105.134-25.027 15.358-18.78 61.663-18.78 94.587 0 102.86 16.454 145.737-31.965 156.843-16.073 3.658-27.91 6.097-69.005 6.493-52.724 0.527-97.362-0.132-122.631-11.898-16.835-7.811-29.816-25.245-21.903-26.234 9.754-1.252 31.899-5.669 43.631-20.829 15.134-19.577 14.613-63.508 14.613-63.508s8.713-121.052-20.34-136.113c-19.924-10.283-47.241 10.744-105.936 107.045-30.059 49.304-52.76 103.815-52.76 103.815s-4.374 10.184-12.184 15.655c-9.476 6.591-22.7 8.701-22.7 8.701l-140.473-0.89c0 0-21.069-0.56-28.81-9.261-6.907-7.745-0.555-23.762-0.555-23.762s109.962-244.278 234.469-367.376c114.197-112.878 243.841-105.46 243.841-105.46z" />
<glyph unicode="&#xe914;" glyph-name="stats" d="M215.040 755.2h102.4c5.632 0 10.24-4.608 10.24-10.24v-593.92c0-5.632-4.608-10.24-10.24-10.24h-102.4c-5.632 0-10.24 4.608-10.24 10.24v593.92c0 5.632 4.608 10.24 10.24 10.24zM460.8 396.8h102.4c5.632 0 10.24-4.608 10.24-10.24v-235.52c0-5.632-4.608-10.24-10.24-10.24h-102.4c-5.632 0-10.24 4.608-10.24 10.24v235.52c0 5.632 4.608 10.24 10.24 10.24zM706.56 488.96h102.4c5.632 0 10.24-4.608 10.24-10.24v-327.68c0-5.632-4.608-10.24-10.24-10.24h-102.4c-5.632 0-10.24 4.608-10.24 10.24v327.68c0 5.632 4.608 10.24 10.24 10.24zM983.040-64h-942.080c-22.656 0-40.96 18.304-40.96 40.96v942.080c0 22.656 18.304 40.96 40.96 40.96h942.080c22.656 0 40.96-18.304 40.96-40.96v-942.080c0-22.656-18.304-40.96-40.96-40.96zM931.84 867.84h-839.68v-839.68h839.68v839.68z" />
<glyph unicode="&#xe915;" glyph-name="live-cubs" d="M1001.741 959.984h-422.958c-12.244 0-22.261-10.017-22.261-22.261v-422.957c0-12.243 10.017-22.26 22.261-22.26h422.958c12.243 0 22.259 10.017 22.259 22.26v422.957c0 12.243-10.016 22.261-22.259 22.261zM1001.741 403.462h-422.958c-12.244 0-22.261-10.017-22.261-22.26v-422.956c0-12.243 10.017-22.259 22.261-22.259h422.958c12.243 0 22.259 10.016 22.259 22.259v422.956c0 12.243-10.016 22.26-22.259 22.26zM445.217 959.984h-422.956c-12.243 0-22.261-10.017-22.261-22.261v-422.957c0-12.243 10.017-22.26 22.261-22.26h422.956c12.244 0 22.261 10.017 22.261 22.26v422.957c0 12.243-10.017 22.261-22.261 22.261zM445.217 403.462h-422.956c-12.243 0-22.261-10.017-22.261-22.26v-422.956c0-12.243 10.017-22.259 22.261-22.259h422.956c12.244 0 22.261 10.016 22.261 22.259v422.956c0 12.243-10.017 22.26-22.261 22.26z" />
<glyph unicode="&#xe916;" glyph-name="weapons" d="M917.536 960h-83.897c-7.341 0-14.391-2.917-19.582-8.112l-537.035-537.038 123.060-123.061 537.036 537.040c5.199 5.193 8.113 12.236 8.113 19.582v83.897c0 15.294-12.398 27.692-27.695 27.692zM110.385 247.951c-16.434-16.434-25.175-37.915-25.995-59.579-21.4-0.598-42.622-9.040-58.957-25.374-33.908-33.91-33.908-88.883 0-122.793s88.887-33.91 122.797 0c16.235 16.234 24.675 37.297 25.364 58.565 21.273 0.693 42.342 9.137 58.578 25.372l50.289 50.294-122.797 122.796-49.28-49.28zM511.664 325.168l123.041 123.041 33.367-33.367-123.041-123.042-33.367 33.367zM310.392 526.548l123.061 123.061-302.28 302.279c-5.193 5.195-12.236 8.112-19.582 8.112h-83.899c-15.294 0-27.692-12.399-27.692-27.692v-83.897c0-7.346 2.917-14.389 8.112-19.58l302.28-302.282zM860.845 188.37c-0.819 21.665-9.563 43.147-26.002 59.579l-49.278 49.282-122.797-122.796 50.291-50.294c16.237-16.234 37.305-24.678 58.578-25.372 0.688-21.268 9.129-42.331 25.364-58.565 33.91-33.91 88.883-33.91 122.793 0 33.91 33.902 33.91 88.883 0 122.793-16.329 16.331-37.549 24.774-58.951 25.372zM818.491 447.642c-10.815 10.815-28.349 10.813-39.163 0l-266.97-266.969c-10.815-10.815-10.815-28.349 0-39.164 10.813-10.815 28.347-10.815 39.162 0l266.971 266.97c10.815 10.813 10.815 28.347 0 39.162zM165.903 447.642c-10.813 10.813-28.348 10.815-39.162 0s-10.815-28.347 0-39.162l266.97-266.97c10.813-10.815 28.349-10.815 39.162 0s10.814 28.349 0 39.164l-266.97 266.969z" />
<glyph unicode="&#xe917;" glyph-name="levels" d="M993.97 752.292h-348.709c-3.69 8.592-9.034 16.638-16.040 23.642l-55.116 55.116c-14.334 14.336-33.396 22.232-53.672 22.232-20.274 0-39.334-7.896-53.672-22.23l-55.116-55.116c-7.004-7.004-12.35-15.050-16.040-23.642h-365.575c-16.584 0-30.030-13.444-30.030-30.028s13.446-30.032 30.030-30.032h365.579c3.69-8.592 9.034-16.638 16.040-23.642l55.116-55.116c14.336-14.336 33.398-22.23 53.672-22.23 20.276 0 39.336 7.896 53.672 22.23l55.116 55.116c7.004 7.004 12.35 15.050 16.040 23.642h348.707c16.584 0 30.030 13.446 30.030 30.030s-13.446 30.028-30.032 30.028zM586.757 711.056l-55.116-55.116c-2.992-2.992-6.97-4.64-11.204-4.64s-8.212 1.648-11.204 4.64l-55.116 55.116c-6.178 6.18-6.178 16.232 0 22.41l55.116 55.114c2.992 2.992 6.97 4.64 11.204 4.64s8.212-1.648 11.204-4.64l55.116-55.116c6.178-6.178 6.178-16.23 0-22.408zM993.968 474.023h-585.751c-3.756 8.716-9.17 16.73-16.084 23.642l-55.114 55.116c-14.336 14.336-33.398 22.23-53.672 22.23-20.276 0-39.336-7.896-53.672-22.23l-55.116-55.116c-7.004-7.004-12.35-15.050-16.040-23.642h-128.49c-16.584 0-30.030-13.444-30.030-30.028s13.446-30.030 30.030-30.030h128.494c3.69-8.592 9.034-16.638 16.040-23.642l55.116-55.116c14.334-14.336 33.396-22.232 53.672-22.232 20.274 0 39.334 7.896 53.672 22.232l55.114 55.114c6.912 6.912 12.328 14.926 16.084 23.642h585.751c16.584 0 30.030 13.446 30.030 30.030-0.002 16.584-13.45 30.030-30.034 30.030zM349.667 432.789l-55.114-55.114c-2.992-2.992-6.97-4.64-11.204-4.64s-8.212 1.648-11.204 4.64l-55.116 55.116c-6.178 6.178-6.178 16.23 0 22.408l55.116 55.116c2.992 2.992 6.97 4.64 11.204 4.64s8.212-1.648 11.204-4.64l55.114-55.116c2.992-2.992 4.64-6.97 4.64-11.202 0-4.234-1.648-8.214-4.64-11.208zM993.968 203.761h-148.514c-3.69 8.592-9.034 16.638-16.040 23.642l-55.116 55.116c-14.334 14.336-33.396 22.232-53.672 22.232-20.274 0-39.334-7.896-53.672-22.23l-55.116-55.116c-7.004-7.004-12.35-15.050-16.040-23.642h-565.769c-16.584 0-30.030-13.446-30.030-30.030s13.446-30.030 30.030-30.030h565.775c3.69-8.592 9.034-16.638 16.040-23.642l55.116-55.116c14.336-14.336 33.398-22.23 53.672-22.23 20.276 0 39.336 7.896 53.672 22.23l55.116 55.116c7.004 7.004 12.35 15.050 16.040 23.642h148.514c16.584 0 30.030 13.446 30.030 30.030-0.004 16.584-13.452 30.028-30.036 30.028zM786.95 162.528l-55.116-55.116c-2.992-2.992-6.97-4.64-11.204-4.64s-8.212 1.648-11.204 4.64l-55.116 55.116c-6.178 6.178-6.178 16.23 0 22.408l55.116 55.114c2.992 2.992 6.97 4.64 11.204 4.64s8.212-1.648 11.204-4.64l55.116-55.116c6.178-6.176 6.178-16.228 0-22.406z" />
<glyph unicode="&#xe918;" glyph-name="epic-logo" horiz-adv-x="1334" d="M1333.581 584.534l-500.647-648.534 120.214 375.466h-275.282l208.234 648.534h274.692l-120.215-375.466h293.005zM327.857 960h429.759l-87.677-273.066h-430.692l88.611 273.066zM637.060 584.534h-424.396l-88.611-273.067h425.328l87.678 273.067zM797.49 209.066h-708.88l-88.61-273.066h708.881l88.609 273.066z" />
<glyph unicode="&#xe919;" glyph-name="VS" horiz-adv-x="1820" d="M628.458 457.139l-39.582-190.809h-3.714l-39.581 191.951-137.289 395.325h-237.475l315.395-808.924h202.841l315.395 808.924h-237.475l-138.523-396.469zM1319.307 221.779c-60.607 3.426-129.87 28.566-174.393 77.693l-139.764-121.107c82.87-97.119 192.945-146.248 298.079-146.248 160.792 0 340.129 86.838 346.312 242.224v19.42c0 41.135-7.419 75.405-21.028 103.972-50.712 99.403-160.792 130.25-280.759 151.96-69.271 13.709-112.56 35.422-116.266 75.405 1.237 46.846 42.050 71.977 92.766 71.977 1.237 1.143 1.237 1.143 2.473 1.143 24.729 0 50.712-5.712 79.155-15.994s54.414-27.422 77.918-50.273l144.707 102.83c-90.293 101.687-194.185 129.106-299.316 129.106-162.017 0-316.627-83.409-316.627-242.224 0-155.387 127.391-235.365 269.631-257.074 71.735-9.139 153.373-35.422 149.653-81.124-1.237-21.704-13.601-37.708-35.867-47.988-18.546-9.139-42.050-13.708-68.027-13.708h-8.655z" />
<glyph unicode="&#xe91a;" glyph-name="key" d="M927.496 863.497c-128.674 128.672-338.028 128.67-466.699-0.002-87.89-87.89-118.418-217.412-80.362-334.922l-371.645-371.648c-5.626-5.621-8.79-13.242-8.79-21.208v-169.72c0-16.578 13.418-29.998 30-29.998h169.717c7.968 0 15.586 3.164 21.21 8.79l42.422 42.453c6.474 6.473 9.638 15.554 8.584 24.668l-5.274 45.584 63.164 5.95c14.356 1.347 25.694 12.687 27.042 27.039l5.948 63.165 45.586-5.303c8.466-1.137 16.992 1.703 23.408 7.384 6.386 5.713 10.048 13.856 10.048 22.415v55.857h54.844c7.968 0 15.586 3.164 21.21 8.79l76.933 75.916c117.48-38.087 244.763-9.857 332.654 78.093 128.674 128.667 128.674 338.025 0 466.697zM842.628 651.357c-35.102-35.098-92.171-35.098-127.267 0-35.102 35.098-35.102 92.168 0 127.266 35.096 35.098 92.165 35.098 127.267 0 35.096-35.098 35.096-92.168 0-127.266z" />
<glyph unicode="&#xe91b;" glyph-name="cases" horiz-adv-x="768" d="M768-21.332c0 23.562-19.103 42.665-42.668 42.665h-682.666c-23.564 0-42.667-19.103-42.667-42.665v0c0-23.565 19.103-42.668 42.667-42.668h682.666c23.565 0 42.668 19.103 42.668 42.668v0zM460.8 354.132c0 28.278-22.922 51.2-51.2 51.2h-51.2c-28.278 0-51.2-22.922-51.2-51.2v-238.932c0-28.278 22.922-51.2 51.2-51.2h51.2c28.278 0 51.2 22.922 51.2 51.2v238.932zM691.2 524.8c0 28.278-22.922 51.2-51.2 51.2h-51.2c-28.278 0-51.2-22.922-51.2-51.2v-409.6c0-28.278 22.922-51.2 51.2-51.2h51.2c28.278 0 51.2 22.922 51.2 51.2v409.6zM230.4 183.468c0 28.275-22.923 51.2-51.2 51.2h-51.2c-28.277 0-51.2-22.925-51.2-51.2v-68.268c0-28.278 22.923-51.2 51.2-51.2h51.2c28.277 0 51.2 22.922 51.2 51.2v68.268zM35.549 365.791c16.032-17.812 43.965-17.815 59.998 0l350.331 389.257c18.752 20.836 53.322 7.571 53.322-20.461v0c0-16.892 13.693-30.587 30.587-30.587h7.813c21.207 0 38.4 17.192 38.4 38.4v166.4c0 28.277-22.922 51.2-51.2 51.2h-136.532c-23.565 0-42.668-19.103-42.668-42.667v-12.067c0-16.9 13.701-30.599 30.6-30.599v0c26.491 0 40.466-31.377 22.746-51.069l-363.397-403.812c-13.813-15.347-13.812-38.646 0.001-53.996v0z" />
<glyph unicode="&#xe91c;" glyph-name="opened" horiz-adv-x="910" d="M505.682 236.961v530.999l166.518-165.177 71.513 70.939-288.597 286.277-288.597-286.277 71.514-70.939 166.516 165.177v-530.999h101.133zM910.222 36.318v451.451h-101.137v-451.451h-707.949v451.451h-101.136v-451.451c0-55.406 45.28-100.322 101.136-100.322h707.949c55.857 0 101.137 44.916 101.137 100.322z" />
<glyph unicode="&#xe91d;" glyph-name="double-arrow" d="M0 436.572l107.956-110.367 404.044 413.062 404.045-413.062 107.955 110.367-512 523.428-512-523.428zM107.956-64l404.044 413.060 404.045-413.060 107.955 110.362-512 523.432-512-523.432 107.956-110.362z" />
<glyph unicode="&#xe91e;" glyph-name="arrow-down" horiz-adv-x="910" d="M402.843 137.929v822.071h104.537v-822.071l328.924 331.918 73.919-74.593-455.111-459.255-455.111 459.255 73.919 74.593 328.923-331.918z" />
<glyph unicode="&#xe91f;" glyph-name="search" d="M1020.919 9.6l-332.41 332.419c51.583 66.688 79.487 148.223 79.487 233.983 0 102.655-40.064 198.911-112.511 271.487s-168.959 112.511-271.487 112.511c-102.527 0-199.039-40.064-271.487-112.511-72.575-72.448-112.511-168.832-112.511-271.487 0-102.528 40.064-199.039 112.511-271.487 72.448-72.575 168.832-112.511 271.487-112.511 85.76 0 167.167 27.904 233.855 79.36l332.419-332.283c0.973-0.981 2.125-1.749 3.405-2.278 1.271-0.529 2.637-0.802 4.019-0.802 1.374 0 2.739 0.273 4.011 0.802 1.28 0.529 2.432 1.297 3.413 2.278l55.799 55.671c0.981 0.981 1.749 2.133 2.278 3.413 0.529 1.271 0.802 2.637 0.802 4.011 0 1.382-0.273 2.748-0.802 4.019-0.529 1.28-1.297 2.432-2.278 3.405zM586.749 373.251c-54.272-54.144-126.207-83.968-202.751-83.968s-148.479 29.824-202.751 83.968c-54.144 54.272-83.968 126.207-83.968 202.751s29.824 148.607 83.968 202.751c54.272 54.144 126.207 83.968 202.751 83.968s148.607-29.696 202.751-83.968c54.144-54.272 83.968-126.207 83.968-202.751s-29.824-148.607-83.968-202.751z" />
<glyph unicode="&#xe920;" glyph-name="double-arrow-down" d="M1024 459.426l-107.955 110.368-404.045-413.062-404.044 413.062-107.957-110.368 512-523.426 512 523.426zM1024 849.634l-107.955 110.366-404.045-413.062-404.044 413.062-107.957-110.366 512-523.43 512 523.43z" />
<glyph unicode="&#xe921;" d="M512-39.619c-269.305 0-487.619 218.314-487.619 487.619s218.314 487.619 487.619 487.619c269.305 0 487.619-218.314 487.619-487.619s-218.314-487.619-487.619-487.619zM512 49.040c220.34 0 398.96 178.62 398.96 398.96s-178.62 398.961-398.96 398.961c-220.34 0-398.961-178.621-398.961-398.961s178.621-398.96 398.961-398.96zM334.687 270.682c17.313-17.31 45.38-17.31 62.691 0l80.145 80.148c19.044 19.042 49.918 19.042 68.962 0l80.145-80.148c17.31-17.31 45.378-17.31 62.691 0v0c17.31 17.313 17.31 45.38 0 62.691l-80.145 80.148c-19.044 19.042-19.044 49.915 0 68.959l80.145 80.145c17.31 17.31 17.31 45.38 0 62.691v0c-17.313 17.31-45.38 17.31-62.691 0l-80.145-80.145c-19.044-19.044-49.918-19.044-68.962 0l-80.145 80.145c-17.31 17.31-45.378 17.31-62.691 0v0c-17.31-17.31-17.31-45.38 0-62.691l80.145-80.145c19.044-19.044 19.044-49.918 0-68.959l-80.145-80.148c-17.31-17.31-17.31-45.378 0-62.691v0z" />
<glyph unicode="&#xe922;" d="M334.687 333.373v0zM414.832 482.48v0zM414.832 413.52v0zM397.378 625.315v0zM546.484 545.17v0zM477.523 545.17v0zM626.629 625.315v0zM689.32 562.625v0zM609.175 413.52v0zM609.175 482.48v0zM689.32 333.373v0zM626.629 270.682v0zM477.523 350.83v0zM0 448c0-282.77 229.23-512 512-512v48.762c-255.839 0-463.238 207.399-463.238 463.238h-48.762zM512 960c-282.77 0-512-229.23-512-512h48.762c0 255.839 207.399 463.238 463.238 463.238v48.762zM1024 448c0 282.77-229.23 512-512 512v-48.762c255.839 0 463.238-207.399 463.238-463.238h48.762zM512-64c282.77 0 512 229.23 512 512h-48.762c0-255.839-207.399-463.238-463.238-463.238v-48.762zM886.579 448c0-206.875-167.704-374.579-374.579-374.579v-48.762c233.806 0 423.341 189.535 423.341 423.341h-48.762zM512 822.58c206.875 0 374.579-167.705 374.579-374.58h48.762c0 233.806-189.535 423.342-423.341 423.342v-48.762zM137.42 448c0 206.875 167.705 374.58 374.58 374.58v48.762c-233.806 0-423.342-189.536-423.342-423.342h48.762zM512 73.421c-206.875 0-374.58 167.704-374.58 374.579h-48.762c0-233.806 189.536-423.341 423.342-423.341v48.762zM460.283 368.069l-80.145-80.145 34.48-34.482 80.145 80.148-34.48 34.48zM643.869 287.924l-80.145 80.145-34.48-34.48 80.145-80.148 34.48 34.482zM591.935 396.281l80.145-80.148 34.48 34.482-80.145 80.145-34.48-34.48zM672.080 579.864l-80.145-80.145 34.48-34.48 80.145 80.145-34.48 34.48zM563.724 527.931l80.145 80.145-34.48 34.48-80.145-80.145 34.48-34.48zM380.138 608.076l80.145-80.145 34.48 34.48-80.145 80.145-34.48-34.48zM432.072 499.719l-80.145 80.145-34.48-34.48 80.145-80.145 34.48 34.48zM351.927 316.133l80.145 80.148-34.48 34.48-80.145-80.145 34.48-34.482zM317.447 350.615c-26.834-26.834-26.834-70.339 0-97.173l34.48 34.482c-7.79 7.79-7.79 20.419 0 28.209l-34.48 34.482zM397.592 465.24c9.523-9.521 9.523-24.959 0-34.48l34.48-34.48c28.565 28.562 28.565 74.874 0 103.439l-34.48-34.48zM317.447 642.555c-26.834-26.834-26.834-70.337 0-97.17l34.48 34.48c-7.79 7.79-7.79 20.421 0 28.211l-34.48 34.48zM414.618 642.555c-26.831 26.834-70.337 26.834-97.17 0l34.48-34.48c7.79 7.79 20.421 7.79 28.211 0l34.48 34.48zM529.245 562.41c-9.523-9.521-24.959-9.521-34.482 0l-34.48-34.48c28.565-28.565 74.876-28.565 103.441 0l-34.48 34.48zM706.56 642.555c-26.834 26.834-70.339 26.834-97.17 0l34.48-34.48c7.79 7.79 20.419 7.79 28.211 0l34.48 34.48zM706.56 545.385c26.834 26.834 26.831 70.337 0 97.17l-34.48-34.48c7.79-7.79 7.79-20.421 0-28.211l34.48-34.48zM626.415 430.76c-9.523 9.521-9.523 24.959 0 34.48l-34.48 34.48c-28.565-28.565-28.565-74.876 0-103.439l34.48 34.48zM706.56 253.442c26.831 26.834 26.834 70.339 0 97.173l-34.48-34.482c7.79-7.79 7.79-20.419 0-28.209l34.48-34.482zM609.39 253.442c26.831-26.831 70.337-26.831 97.17 0l-34.48 34.482c-7.792-7.792-20.421-7.792-28.211 0l-34.48-34.482zM380.138 287.924c-7.79-7.792-20.421-7.792-28.211 0l-34.48-34.482c26.834-26.831 70.339-26.831 97.17 0l-34.48 34.482zM494.763 333.59c9.523 9.521 24.959 9.521 34.482 0l34.48 34.48c-28.565 28.562-74.876 28.562-103.441 0l34.48-34.48z" />
<glyph unicode="&#xe923;" glyph-name="arrow-up" horiz-adv-x="910" d="M507.379 758.071v-822.071h-104.537v822.071l-328.923-331.918-73.919 74.593 455.111 459.255 455.111-459.255-73.919-74.593-328.924 331.918z" />
<glyph unicode="&#xe924;" d="M512-39.619c-269.305 0-487.619 218.314-487.619 487.619s218.314 487.619 487.619 487.619c269.305 0 487.619-218.314 487.619-487.619s-218.314-487.619-487.619-487.619zM512 49.037c220.338 0 398.96 178.622 398.96 398.963s-178.622 398.961-398.96 398.961c-220.34 0-398.962-178.62-398.962-398.961s178.622-398.963 398.962-398.963zM689.315 580.986c-17.313 17.313-45.38 17.313-62.691 0l-168.804-168.804c-19.042-19.042-49.918-19.042-68.959 0l-35.818 35.818c-17.31 17.31-45.378 17.31-62.691 0-17.31-17.313-17.31-45.38 0-62.691l98.509-98.509c19.042-19.042 49.918-19.042 68.959 0l231.495 231.495c17.31 17.313 17.31 45.38 0 62.691z" />
<glyph unicode="&#xe925;" d="M388.862 286.8v0zM457.821 286.8v0zM353.044 448v0zM0 448c0-282.77 229.23-512 512-512v48.762c-255.839 0-463.238 207.399-463.238 463.238h-48.762zM512 960c-282.77 0-512-229.23-512-512h48.762c0 255.839 207.399 463.238 463.238 463.238v48.762zM1024 448c0 282.77-229.23 512-512 512v-48.762c255.839 0 463.238-207.399 463.238-463.238h48.762zM512-64c282.77 0 512 229.23 512 512h-48.762c0-255.839-207.399-463.238-463.238-463.238v-48.762zM886.579 448c0-206.875-167.704-374.582-374.579-374.582v-48.762c233.804 0 423.341 189.538 423.341 423.344h-48.762zM512 822.58c206.875 0 374.579-167.705 374.579-374.58h48.762c0 233.806-189.538 423.342-423.341 423.342v-48.762zM137.419 448c0 206.875 167.706 374.58 374.581 374.58v48.762c-233.806 0-423.343-189.536-423.343-423.342h48.762zM512 73.418c-206.875 0-374.581 167.707-374.581 374.582h-48.762c0-233.806 189.537-423.344 423.343-423.344v48.762zM475.060 394.942l168.804 168.804-34.48 34.48-168.804-168.804 34.48-34.48zM335.804 430.76l35.818-35.818 34.48 34.48-35.816 35.818-34.482-34.48zM406.101 304.040l-98.506 98.509-34.482-34.48 98.509-98.509 34.48 34.48zM672.076 535.535l-231.495-231.495 34.48-34.48 231.495 231.495-34.48 34.48zM706.555 501.055c26.834 26.834 26.834 70.337 0 97.17l-34.48-34.48c7.79-7.79 7.79-20.421 0-28.211l34.48-34.48zM371.622 269.561c28.562-28.562 74.874-28.562 103.439 0l-34.48 34.48c-9.521-9.521-24.959-9.521-34.48 0l-34.48-34.48zM273.113 465.24c-26.831-26.834-26.831-70.339 0-97.17l34.482 34.48c-7.792 7.79-7.792 20.419 0 28.211l-34.482 34.48zM370.286 465.24c-26.834 26.831-70.339 26.831-97.173 0l34.482-34.48c7.79 7.79 20.419 7.79 28.209 0l34.482 34.48zM643.864 563.746c7.79 7.79 20.421 7.79 28.211 0l34.48 34.48c-26.834 26.834-70.339 26.834-97.17 0l34.48-34.48zM440.581 429.422c-9.521-9.521-24.959-9.521-34.48 0l-34.48-34.48c28.562-28.562 74.874-28.562 103.439 0l-34.48 34.48z" />
<glyph unicode="&#xe926;" glyph-name="cup1" d="M768.038 38.4h-512.025v-102.4h512.025v102.4zM972.851 908.8h-167.843c-17.77 30.464-50.384 51.2-88.17 51.2h-409.622c-37.736 0-70.403-20.736-88.17-51.2h-167.843c-28.264 0-51.203-22.938-51.203-51.2v-204.8c0-15.565 7.065-30.253 19.251-39.981l252.329-201.888c46.185-58.163 113.003-99.069 189.243-111.92v-55.811h-102.403c-28.266 0-51.203-22.938-51.203-51.2v-102.4h409.622v102.4c0 28.262-22.941 51.2-51.203 51.2h-102.406v55.811c76.291 12.851 143.059 53.757 189.245 111.92l252.326 201.888c12.134 9.677 19.2 24.416 19.2 39.981v204.8c0.051 28.262-22.835 51.2-51.149 51.2zM102.405 677.381v128.969h102.405v-204.801c0-2.15 0.255-4.25 0.306-6.4l-102.711 82.232zM921.648 677.381l-102.714-82.181c0.051 2.15 0.307 4.25 0.307 6.4v204.8h102.406v-129.019z" />
<glyph unicode="&#xe927;" glyph-name="chevron-up" d="M792.781 335.258c-22.323-22.835-53.402-24.627-80.691 0l-200.090 191.846-200.090-191.846c-27.29-24.627-58.419-22.835-80.589 0-22.323 22.784-20.89 61.286 0 82.688 20.787 21.402 240.384 230.502 240.384 230.502 11.11 11.418 25.702 17.152 40.294 17.152s29.184-5.734 40.397-17.152c0 0 219.494-209.101 240.384-230.502 20.941-21.402 22.323-59.904 0-82.688z" />
<glyph unicode="&#xe928;" glyph-name="repeat" d="M409.587 704h-194.915c69.657 98.371 174.762 153.6 297.315 153.6 226.216 0 409.604-183.384 409.604-409.6h102.4c0 282.77-229.234 512-512.004 512-143.577 0-270.074-60.545-358.4-167.442v167.442h-102.4v-358.4h358.4v102.4zM614.4 192h194.915c-69.656-98.372-174.762-153.6-297.315-153.6-226.216 0-409.6 183.384-409.6 409.6h-102.4c0-282.77 229.23-512 512-512 143.577 0 270.075 60.544 358.4 167.441v-167.441h102.4v358.4h-358.4v-102.4z" />
<glyph unicode="&#xe929;" glyph-name="remove-item" d="M512-64c-282.77 0-512 229.23-512 512s229.23 512 512 512c282.77 0 512-229.23 512-512s-229.23-512-512-512zM512 29.092c231.357 0 418.908 187.551 418.908 418.908s-187.551 418.909-418.908 418.909c-231.357 0-418.909-187.552-418.909-418.909s187.552-418.908 418.909-418.908zM325.821 261.816c18.179-18.176 47.649-18.176 65.825 0l84.152 84.155c19.996 19.994 52.413 19.994 72.41 0l84.152-84.155c18.176-18.176 47.647-18.176 65.825 0v0c18.176 18.179 18.176 47.649 0 65.825l-84.152 84.155c-19.996 19.994-19.996 52.411 0 72.407l84.152 84.152c18.176 18.176 18.176 47.649 0 65.825v0c-18.179 18.176-47.649 18.176-65.825 0l-84.152-84.152c-19.996-19.996-52.413-19.996-72.41 0l-84.152 84.152c-18.176 18.176-47.647 18.176-65.825 0v0c-18.176-18.176-18.176-47.649 0-65.825l84.152-84.152c19.996-19.996 19.996-52.413 0-72.407l-84.152-84.155c-18.176-18.176-18.176-47.647 0-65.825v0z" />
<glyph unicode="&#xe92a;" glyph-name="arrow-right" horiz-adv-x="717" d="M698.274 482.048l-678.848 475.645c-1.774 1.253-3.906 2.031-6.151 2.246s-4.512-0.143-6.54-1.031c-2.029-0.889-3.737-2.273-4.928-3.993s-1.818-3.707-1.807-5.732v-104.423c0-6.619 3.464-12.968 9.186-17.021l542.114-379.732-542.114-379.733c-5.873-4.053-9.186-10.402-9.186-17.021v-104.423c0-9.051 11.595-14.044 19.426-8.51l678.848 475.645c5.769 4.038 10.437 9.203 13.647 15.101s4.879 12.377 4.879 18.942c0 6.564-1.669 13.042-4.879 18.941s-7.878 11.063-13.647 15.101z" />
<glyph unicode="&#xe92b;" glyph-name="chevron-down" d="M231.219 586.342c22.323 22.835 53.402 24.627 80.691 0l200.090-191.846 200.090 191.846c27.29 24.627 58.419 22.835 80.589 0 22.323-22.784 20.89-61.286 0-82.688-20.787-21.402-240.384-230.502-240.384-230.502-11.11-11.418-25.702-17.152-40.294-17.152s-29.184 5.734-40.397 17.152c0 0-219.494 209.101-240.384 230.502-20.941 21.402-22.323 59.904 0 82.688z" />
<glyph unicode="&#xe92c;" d="M509.999 157.999c-22.093 0-39.999 17.906-39.999 40.001 0 22.093 17.906 39.999 39.999 39.999 22.095 0 40.001-17.906 40.001-39.999 0-22.095-17.906-40.001-40.001-40.001zM550 338.001v53.711c77.344 18.71 130.93 88.883 127.874 168.233-3.32 86.406-74.21 156.664-161.39 159.931-46.578 1.764-90.563-14.923-123.811-46.946-32.679-31.476-50.672-73.71-50.672-118.93 0-22.093 17.906-39.999 39.999-39.999 22.095 0 40.001 17.906 40.001 39.999 0 23.282 9.289 45.054 26.163 61.304 17.453 16.805 40.633 25.547 65.321 24.633 45.633-1.719 82.725-38.203 84.452-83.070 1.601-41.813-27.258-78.757-68.64-87.836-34.914-7.664-59.297-37.837-59.297-73.383v-57.647c0-22.095 17.906-40.001 39.999-40.001 22.095 0 40.001 17.906 40.001 40.001zM776.923 9.789c18.899 11.445 24.936 36.039 13.491 54.93-11.453 18.899-36.047 24.938-54.938 13.491-67.186-40.694-144.469-62.21-223.476-62.21-238.204 0-432 193.796-432 432s193.796 432 432 432c238.204 0 432-193.796 432-432 0-85.179-25.328-168.086-73.249-239.774-12.282-18.359-7.345-43.203 11.016-55.485 18.367-12.28 43.211-7.343 55.483 11.024 56.759 84.884 86.751 183.172 86.751 284.235 0 136.757-53.258 265.336-149.961 362.039s-225.282 149.961-362.039 149.961c-136.757 0-265.336-53.258-362.039-149.961s-149.961-225.282-149.961-362.039c0-136.757 53.258-265.336 149.961-362.039s225.282-149.961 362.039-149.961c93.625 0 185.234 25.515 264.923 73.789z" />
<glyph unicode="&#xe92d;" d="M509.999 157.999c-22.093 0-39.999 17.906-39.999 40.001 0 22.093 17.906 39.999 39.999 39.999 22.095 0 40.001-17.906 40.001-39.999 0-22.095-17.906-40.001-40.001-40.001zM550 338.001v53.711c77.344 18.71 130.93 88.883 127.874 168.233-3.32 86.406-74.21 156.664-161.39 159.931-46.578 1.764-90.563-14.923-123.811-46.946-32.679-31.476-50.672-73.71-50.672-118.93 0-22.093 17.906-39.999 39.999-39.999 22.095 0 40.001 17.906 40.001 39.999 0 23.282 9.289 45.054 26.163 61.304 17.453 16.805 40.633 25.547 65.321 24.633 45.633-1.719 82.725-38.203 84.452-83.070 1.601-41.813-27.258-78.757-68.64-87.836-34.914-7.664-59.297-37.837-59.297-73.383v-57.647c0-22.095 17.906-40.001 39.999-40.001 22.095 0 40.001 17.906 40.001 40.001zM776.923 9.789c18.899 11.445 24.936 36.039 13.491 54.93-11.453 18.899-36.047 24.938-54.938 13.491-67.186-40.694-144.469-62.21-223.476-62.21-238.204 0-432 193.796-432 432s193.796 432 432 432c238.204 0 432-193.796 432-432 0-85.179-25.328-168.086-73.249-239.774-12.282-18.359-7.345-43.203 11.016-55.485 18.367-12.28 43.211-7.343 55.483 11.024 56.759 84.884 86.751 183.172 86.751 284.235 0 136.757-53.258 265.336-149.961 362.039s-225.282 149.961-362.039 149.961c-136.757 0-265.336-53.258-362.039-149.961s-149.961-225.282-149.961-362.039c0-136.757 53.258-265.336 149.961-362.039s225.282-149.961 362.039-149.961c93.625 0 185.234 25.515 264.923 73.789z" />
<glyph unicode="&#xe92e;" horiz-adv-x="1152" d="M68.499 399.25c18.324 0 35.55 7.060 48.506 19.878l194.949 192.878 39.088-38.669c12.955-12.82 30.181-19.882 48.505-19.882s35.551 7.062 48.507 19.878l182.223 180.29c11.92-9.498 26.939-14.885 42.988-14.885 37.828 0 68.599 30.448 68.599 67.87v85.52c0 37.425-30.773 67.871-68.599 67.871h-86.438c-37.826 0-68.599-30.448-68.599-67.871 0-15.881 5.444-30.738 15.042-42.529l-133.722-132.298-39.088 38.671c-26.747 26.46-70.263 26.46-97.008 0l-242.691-240.113c-13.239-13.098-20.61-30.312-20.759-48.47-0.146-18.22 6.955-35.359 19.996-48.26 12.956-12.82 30.182-19.878 48.501-19.878zM52.58 484.381l242.686 240.108c9.201 9.099 24.17 9.099 33.37 0l54.996-54.413c8.788-8.691 23.031-8.691 31.823 0l167.080 165.305c5.138 5.087 7.479 12.315 6.281 19.411-1.196 7.095-5.786 13.179-12.321 16.335-8.187 3.954-13.272 12.003-13.272 21.003 0 12.876 10.586 23.349 23.6 23.349h86.438c13.012 0 23.598-10.474 23.598-23.349v-85.52c0-12.874-10.586-23.347-23.598-23.347-9.099 0-17.232 5.033-21.232 13.132-3.189 6.462-9.339 11.004-16.51 12.19-7.159 1.18-14.479-1.129-19.619-6.215l-199.675-197.554c-4.456-4.409-10.383-6.837-16.684-6.837-6.303 0-12.229 2.428-16.684 6.839l-54.998 54.409c-8.788 8.691-23.031 8.691-31.821 0l-210.86-208.618c-4.455-4.407-10.379-6.835-16.684-6.835-6.302 0-12.226 2.428-16.684 6.839-4.446 4.398-6.867 10.231-6.815 16.421 0.054 6.4 2.747 12.56 7.583 17.348z" />
<glyph unicode="&#xe92f;" horiz-adv-x="1152" d="M68.499 399.25c18.324 0 35.55 7.060 48.506 19.878l194.949 192.878 39.088-38.669c12.955-12.82 30.181-19.882 48.505-19.882s35.551 7.062 48.507 19.878l182.223 180.29c11.92-9.498 26.939-14.885 42.988-14.885 37.828 0 68.599 30.448 68.599 67.87v85.52c0 37.425-30.773 67.871-68.599 67.871h-86.438c-37.826 0-68.599-30.448-68.599-67.871 0-15.881 5.444-30.738 15.042-42.529l-133.722-132.298-39.088 38.671c-26.747 26.46-70.263 26.46-97.008 0l-242.691-240.113c-13.239-13.098-20.61-30.312-20.759-48.47-0.146-18.22 6.955-35.359 19.996-48.26 12.956-12.82 30.182-19.878 48.501-19.878zM52.58 484.381l242.686 240.108c9.201 9.099 24.17 9.099 33.37 0l54.996-54.413c8.788-8.691 23.031-8.691 31.823 0l167.080 165.305c5.138 5.087 7.479 12.315 6.281 19.411-1.196 7.095-5.786 13.179-12.321 16.335-8.187 3.954-13.272 12.003-13.272 21.003 0 12.876 10.586 23.349 23.6 23.349h86.438c13.012 0 23.598-10.474 23.598-23.349v-85.52c0-12.874-10.586-23.347-23.598-23.347-9.099 0-17.232 5.033-21.232 13.132-3.189 6.462-9.339 11.004-16.51 12.19-7.159 1.18-14.479-1.129-19.619-6.215l-199.675-197.554c-4.456-4.409-10.383-6.837-16.684-6.837-6.303 0-12.229 2.428-16.684 6.839l-54.998 54.409c-8.788 8.691-23.031 8.691-31.821 0l-210.86-208.618c-4.455-4.407-10.379-6.835-16.684-6.835-6.302 0-12.226 2.428-16.684 6.839-4.446 4.398-6.867 10.231-6.815 16.421 0.054 6.4 2.747 12.56 7.583 17.348z" />
<glyph unicode="&#xe930;" horiz-adv-x="1152" d="M1084.5 960c-37.221 0-67.5-29.959-67.5-66.783v-823.651h-90.006v606.053c0 24.55-20.186 44.522-44.999 44.522h-90.002c-24.814 0-44.999-19.972-44.999-44.522v-202.843c0-12.292 10.075-22.261 22.499-22.261s22.501 9.969 22.501 22.261v202.843h90.002v-606.053h-90.002v202.862c0 12.292-10.075 22.259-22.501 22.259-12.423 0-22.499-9.968-22.499-22.259v-202.862h-89.999v427.408c0 24.55-20.187 44.522-45.001 44.522h-90.002c-24.812 0-44.999-19.972-44.999-44.522v-427.408h-89.999v345.6c0 24.549-20.186 44.522-44.999 44.522h-90c-24.814 0-45.003-19.973-45.003-44.522v-345.6h-139.491c-37.219 0-67.5-29.959-67.5-66.783s30.281-66.783 67.5-66.783h1017c37.219 0 67.5 29.959 67.5 66.783v890.434c0 36.824-30.281 66.783-67.5 66.783zM521.991 496.975h90.002v-427.408h-90.002v427.408zM251.994 415.166h90v-345.6h-90.002l0.002 345.6zM1107.001 2.783c0-12.275-10.094-22.261-22.501-22.261h-1017c-12.406 0-22.5 9.986-22.5 22.261s10.094 22.261 22.5 22.261h971.999c12.425 0 22.501 9.968 22.501 22.261v845.912c0 12.275 10.094 22.261 22.501 22.261s22.501-9.986 22.501-22.261v-890.434z" />
<glyph unicode="&#xe931;" horiz-adv-x="1152" d="M1084.5 960c-37.221 0-67.5-29.959-67.5-66.783v-823.651h-90.006v606.053c0 24.55-20.186 44.522-44.999 44.522h-90.002c-24.814 0-44.999-19.972-44.999-44.522v-202.843c0-12.292 10.075-22.261 22.499-22.261s22.501 9.969 22.501 22.261v202.843h90.002v-606.053h-90.002v202.862c0 12.292-10.075 22.259-22.501 22.259-12.423 0-22.499-9.968-22.499-22.259v-202.862h-89.999v427.408c0 24.55-20.187 44.522-45.001 44.522h-90.002c-24.812 0-44.999-19.972-44.999-44.522v-427.408h-89.999v345.6c0 24.549-20.186 44.522-44.999 44.522h-90c-24.814 0-45.003-19.973-45.003-44.522v-345.6h-139.491c-37.219 0-67.5-29.959-67.5-66.783s30.281-66.783 67.5-66.783h1017c37.219 0 67.5 29.959 67.5 66.783v890.434c0 36.824-30.281 66.783-67.5 66.783zM521.991 496.975h90.002v-427.408h-90.002v427.408zM251.994 415.166h90v-345.6h-90.002l0.002 345.6zM1107.001 2.783c0-12.275-10.094-22.261-22.501-22.261h-1017c-12.406 0-22.5 9.986-22.5 22.261s10.094 22.261 22.5 22.261h971.999c12.425 0 22.501 9.968 22.501 22.261v845.912c0 12.275 10.094 22.261 22.501 22.261s22.501-9.986 22.501-22.261v-890.434z" />
<glyph unicode="&#xe932;" horiz-adv-x="1152" d="M769.492 350.331c12.425 0 22.501 9.969 22.501 22.261v0.018c0 12.293-10.075 22.252-22.501 22.252-12.423 0-22.499-9.975-22.499-22.27 0-12.293 10.075-22.261 22.499-22.261z" />
<glyph unicode="&#xe933;" horiz-adv-x="1152" d="M769.492 350.331c12.425 0 22.501 9.969 22.501 22.261v0.018c0 12.293-10.075 22.252-22.501 22.252-12.423 0-22.499-9.975-22.499-22.27 0-12.293 10.075-22.261 22.499-22.261z" />
<glyph unicode="&#xe934;" horiz-adv-x="1057" d="M964.043 960h-881.911c-45.287 0-82.133-36.039-82.133-80.338v-485.703c0-44.3 36.845-80.338 82.133-80.338h203.142c11.447 0 20.726 9.077 20.726 20.274 0 11.195-9.28 20.274-20.728 20.274h-203.141c-22.431 0-40.679 17.849-40.679 39.791v485.703c0 21.942 18.248 39.791 40.679 39.791h881.911c22.432 0 40.679-17.85 40.679-39.791v-485.703c0-21.942-18.247-39.791-40.679-39.791h-62.241c-11.447 0-20.724-9.079-20.724-20.274s9.279-20.274 20.724-20.274h62.241c45.287 0 82.131 36.038 82.131 80.338v485.703c0 44.299-36.844 80.338-82.131 80.338z" />
<glyph unicode="&#xe935;" horiz-adv-x="1057" d="M964.043 960h-881.911c-45.287 0-82.133-36.039-82.133-80.338v-485.703c0-44.3 36.845-80.338 82.133-80.338h203.142c11.447 0 20.726 9.077 20.726 20.274 0 11.195-9.28 20.274-20.728 20.274h-203.141c-22.431 0-40.679 17.849-40.679 39.791v485.703c0 21.942 18.248 39.791 40.679 39.791h881.911c22.432 0 40.679-17.85 40.679-39.791v-485.703c0-21.942-18.247-39.791-40.679-39.791h-62.241c-11.447 0-20.724-9.079-20.724-20.274s9.279-20.274 20.724-20.274h62.241c45.287 0 82.131 36.038 82.131 80.338v485.703c0 44.299-36.844 80.338-82.131 80.338z" />
<glyph unicode="&#xe936;" horiz-adv-x="1057" d="M1057.011 215.137c-0.527 15.986-10.775 29.911-26.104 35.475v0.002l-342.809 124.404c-23.215 8.422-48.511 3.017-66.018-14.103-17.509-17.122-23.040-41.867-14.435-64.573l126.857-334.775c5.713-15.074 20.018-25.103 36.446-25.55 0.383-0.013 0.763-0.017 1.143-0.017 15.969 0 30.291 9.142 36.699 23.537l35.090 78.802 76.078-74.44c21.653-21.187 56.891-21.195 78.552-0.012l29.348 28.7c10.491 10.26 16.272 23.904 16.275 38.418 0.002 14.511-5.776 28.157-16.263 38.42l-75.117 73.495 80.549 35.173c14.931 6.521 24.237 21.060 23.709 37.044zM908.351 167.939c-6.23-2.72-10.691-8.266-11.933-14.827-1.239-6.562 0.9-13.3 5.723-18.022l96.413-94.335c5.495-5.376 5.495-14.12-0.002-19.494l-29.348-28.7c-2.661-2.603-6.199-4.035-9.963-4.035h-0.002c-3.766 0-7.305 1.434-9.966 4.038l-97.587 95.485c-4.847 4.743-11.779 6.828-18.518 5.586-6.735-1.249-12.405-5.675-15.142-11.824l-45.857-102.98-125.658 331.601c-4.37 11.535 2.626 19.606 4.876 21.806 1.731 1.693 7.024 6.141 14.757 6.141 2.306 0 4.831-0.395 7.536-1.379l339.608-123.242-104.939-45.819zM1016.503 212.589c-0.005 0.005-0.008 0.007-0.015 0.008l7.209 19.007-7.194-19.015z" />
<glyph unicode="&#xe937;" horiz-adv-x="1057" d="M1057.011 215.137c-0.527 15.986-10.775 29.911-26.104 35.475v0.002l-342.809 124.404c-23.215 8.422-48.511 3.017-66.018-14.103-17.509-17.122-23.040-41.867-14.435-64.573l126.857-334.775c5.713-15.074 20.018-25.103 36.446-25.55 0.383-0.013 0.763-0.017 1.143-0.017 15.969 0 30.291 9.142 36.699 23.537l35.090 78.802 76.078-74.44c21.653-21.187 56.891-21.195 78.552-0.012l29.348 28.7c10.491 10.26 16.272 23.904 16.275 38.418 0.002 14.511-5.776 28.157-16.263 38.42l-75.117 73.495 80.549 35.173c14.931 6.521 24.237 21.060 23.709 37.044zM908.351 167.939c-6.23-2.72-10.691-8.266-11.933-14.827-1.239-6.562 0.9-13.3 5.723-18.022l96.413-94.335c5.495-5.376 5.495-14.12-0.002-19.494l-29.348-28.7c-2.661-2.603-6.199-4.035-9.963-4.035h-0.002c-3.766 0-7.305 1.434-9.966 4.038l-97.587 95.485c-4.847 4.743-11.779 6.828-18.518 5.586-6.735-1.249-12.405-5.675-15.142-11.824l-45.857-102.98-125.658 331.601c-4.37 11.535 2.626 19.606 4.876 21.806 1.731 1.693 7.024 6.141 14.757 6.141 2.306 0 4.831-0.395 7.536-1.379l339.608-123.242-104.939-45.819zM1016.503 212.589c-0.005 0.005-0.008 0.007-0.015 0.008l7.209 19.007-7.194-19.015z" />
<glyph unicode="&#xe938;" horiz-adv-x="1057" d="M590.298 420.778l-58.566 57.291c-8.095 7.915-21.217 7.915-29.311 0-8.095-7.918-8.095-20.754-0.002-28.672l58.568-57.291c4.048-3.959 9.35-5.938 14.655-5.938s10.61 1.979 14.656 5.938c8.096 7.918 8.096 20.753 0 28.672z" />
<glyph unicode="&#xe939;" horiz-adv-x="1057" d="M590.298 420.778l-58.566 57.291c-8.095 7.915-21.217 7.915-29.311 0-8.095-7.918-8.095-20.754-0.002-28.672l58.568-57.291c4.048-3.959 9.35-5.938 14.655-5.938s10.61 1.979 14.656 5.938c8.096 7.918 8.096 20.753 0 28.672z" />
<glyph unicode="&#xe93a;" horiz-adv-x="1057" d="M532.845 353.992h-82.828c-11.447 0-20.726-9.077-20.726-20.274s9.28-20.274 20.726-20.274h82.828c11.446 0 20.726 9.077 20.726 20.274s-9.28 20.274-20.726 20.274z" />
<glyph unicode="&#xe93b;" horiz-adv-x="1057" d="M532.845 353.992h-82.828c-11.447 0-20.726-9.077-20.726-20.274s9.28-20.274 20.726-20.274h82.828c11.446 0 20.726 9.077 20.726 20.274s-9.28 20.274-20.726 20.274z" />
<glyph unicode="&#xe93c;" horiz-adv-x="1057" d="M651.776 551.348c-11.446 0-20.726-9.077-20.726-20.274v-81.022c0-11.195 9.28-20.272 20.726-20.272s20.724 9.077 20.724 20.272v81.022c0 11.196-9.279 20.274-20.724 20.274z" />
<glyph unicode="&#xe93d;" horiz-adv-x="1057" d="M651.776 551.348c-11.446 0-20.726-9.077-20.726-20.274v-81.022c0-11.195 9.28-20.272 20.726-20.272s20.724 9.077 20.724 20.272v81.022c0 11.196-9.279 20.274-20.724 20.274z" />
<glyph unicode="&#xe93e;" horiz-adv-x="1057" d="M825.778 513.685c-8.095 7.915-21.217 7.916-29.311 0l-58.568-57.289c-8.096-7.918-8.096-20.754-0.003-28.672 4.050-3.959 9.353-5.938 14.658-5.938s10.61 1.979 14.656 5.938l58.568 57.289c8.096 7.918 8.096 20.754 0 28.672z" />
<glyph unicode="&#xe93f;" horiz-adv-x="1057" d="M825.778 513.685c-8.095 7.915-21.217 7.916-29.311 0l-58.568-57.289c-8.096-7.918-8.096-20.754-0.003-28.672 4.050-3.959 9.353-5.938 14.658-5.938s10.61 1.979 14.656 5.938l58.568 57.289c8.096 7.918 8.096 20.754 0 28.672z" />
<glyph unicode="&#xe940;" horiz-adv-x="1057" d="M566.264 259.835c-8.096 7.915-21.22 7.915-29.313 0l-58.568-57.293c-8.095-7.918-8.093-20.754 0-28.672 4.046-3.959 9.35-5.938 14.656-5.938s10.61 1.979 14.656 5.938l58.568 57.293c8.095 7.918 8.093 20.753 0 28.672z" />
<glyph unicode="&#xe941;" horiz-adv-x="1057" d="M566.264 259.835c-8.096 7.915-21.22 7.915-29.313 0l-58.568-57.293c-8.095-7.918-8.093-20.754 0-28.672 4.046-3.959 9.35-5.938 14.656-5.938s10.61 1.979 14.656 5.938l58.568 57.293c8.095 7.918 8.093 20.753 0 28.672z" />
<glyph unicode="&#xe942;" horiz-adv-x="1057" d="M367.504 313.564c11.482 0 20.791 9.105 20.791 20.336s-9.308 20.336-20.791 20.336c-11.482 0-20.789-9.105-20.789-20.336s9.307-20.336 20.789-20.336z" />
<glyph unicode="&#xe943;" horiz-adv-x="1057" d="M367.504 313.564c11.482 0 20.791 9.105 20.791 20.336s-9.308 20.336-20.791 20.336c-11.482 0-20.789-9.105-20.789-20.336s9.307-20.336 20.789-20.336z" />
<glyph unicode="&#xe944;" horiz-adv-x="1057" d="M363.9 660.824c18.163 7.711 29.129 25.815 29.129 53.303 0 47.603-33.242 59.001-68.884 59.001h-66.144c-9.938 0-19.534-4.692-19.534-13.745v-217.899c0-7.042 7.54-13.411 19.534-13.411h72.654c38.727 0 68.542 18.772 68.542 71.069v7.039c0 33.526-14.394 46.597-35.298 54.644zM282.677 734.912h38.042c17.477 0 27.759-10.726 27.759-28.16 0-17.094-8.91-28.827-27.417-28.827h-38.383v56.987zM354.649 602.83c0-25.478-12.338-36.542-33.244-36.542h-38.725v77.439h38.725c20.906 0 33.244-9.386 33.244-35.534v-5.363z" />
<glyph unicode="&#xe945;" horiz-adv-x="1057" d="M363.9 660.824c18.163 7.711 29.129 25.815 29.129 53.303 0 47.603-33.242 59.001-68.884 59.001h-66.144c-9.938 0-19.534-4.692-19.534-13.745v-217.899c0-7.042 7.54-13.411 19.534-13.411h72.654c38.727 0 68.542 18.772 68.542 71.069v7.039c0 33.526-14.394 46.597-35.298 54.644zM282.677 734.912h38.042c17.477 0 27.759-10.726 27.759-28.16 0-17.094-8.91-28.827-27.417-28.827h-38.383v56.987zM354.649 602.83c0-25.478-12.338-36.542-33.244-36.542h-38.725v77.439h38.725c20.906 0 33.244-9.386 33.244-35.534v-5.363z" />
<glyph unicode="&#xe946;" horiz-adv-x="1057" d="M572.267 773.127c-11.31 0-22.277-4.022-22.277-13.409v-156.887c0-26.148-14.050-38.552-37.698-38.552-23.646 0-37.698 12.404-37.698 38.552v156.887c0 9.389-11.309 13.409-22.275 13.409-11.31 0-22.277-4.022-22.277-13.409v-156.887c0-55.985 35.985-76.77 82.25-76.77 45.923 0 82.25 20.786 82.25 76.77v156.887c0 9.389-11.309 13.409-22.275 13.409z" />
<glyph unicode="&#xe947;" horiz-adv-x="1057" d="M572.267 773.127c-11.31 0-22.277-4.022-22.277-13.409v-156.887c0-26.148-14.050-38.552-37.698-38.552-23.646 0-37.698 12.404-37.698 38.552v156.887c0 9.389-11.309 13.409-22.275 13.409-11.31 0-22.277-4.022-22.277-13.409v-156.887c0-55.985 35.985-76.77 82.25-76.77 45.923 0 82.25 20.786 82.25 76.77v156.887c0 9.389-11.309 13.409-22.275 13.409z" />
<glyph unicode="&#xe948;" horiz-adv-x="1057" d="M778.233 773.127c-7.198 0-10.281-3.016-13.367-8.714l-52.434-96.884-52.092 96.884c-3.085 6.033-6.512 8.714-13.708 8.714-11.994 0-29.473-7.373-29.473-18.102 0-1.006 0.342-2.682 1.027-4.359l70.942-120.013c0.685-1.006 1.027-2.681 1.027-4.357v-84.478c0-9.054 11.31-13.746 22.277-13.746 11.309 0 22.275 4.696 22.275 13.746v84.478c0 1.676 0.685 3.351 1.371 4.357l70.598 120.013c1.029 1.676 1.029 3.353 1.029 4.359 0 10.729-17.479 18.102-29.473 18.102z" />
<glyph unicode="&#xe949;" horiz-adv-x="1057" d="M778.233 773.127c-7.198 0-10.281-3.016-13.367-8.714l-52.434-96.884-52.092 96.884c-3.085 6.033-6.512 8.714-13.708 8.714-11.994 0-29.473-7.373-29.473-18.102 0-1.006 0.342-2.682 1.027-4.359l70.942-120.013c0.685-1.006 1.027-2.681 1.027-4.357v-84.478c0-9.054 11.31-13.746 22.277-13.746 11.309 0 22.275 4.696 22.275 13.746v84.478c0 1.676 0.685 3.351 1.371 4.357l70.598 120.013c1.029 1.676 1.029 3.353 1.029 4.359 0 10.729-17.479 18.102-29.473 18.102z" />
<glyph unicode="&#xe94a;" d="M110.367 960l-110.367-107.957 413.062-404.043-413.062-404.045 110.367-107.955 523.428 512-523.428 512zM500.57 960l-110.367-107.957 413.061-404.043-413.061-404.045 110.367-107.955 523.43 512-523.43 512z" />
<glyph unicode="&#xe94b;" d="M110.367 960l-110.367-107.957 413.062-404.043-413.062-404.045 110.367-107.955 523.428 512-523.428 512zM500.57 960l-110.367-107.957 413.061-404.043-413.061-404.045 110.367-107.955 523.43 512-523.43 512z" />
<glyph unicode="&#xe94c;" horiz-adv-x="1136" d="M396.894 335.994c14.952 7.544 32.896 1.91 40.854-12.826l56.478-104.579c4.352-8.059 13.622-12.126 22.501-9.886 8.877 2.243 15.098 10.232 15.098 19.389v152.702c-0.002 11.045-8.957 19.998-20.002 19.998s-20-8.957-20-20v-73.581l-18.882 34.96c-18.323 33.926-59.645 46.904-94.066 29.533-29.458-14.862-44.627-47.642-36.89-79.717l36.614-151.762c8.557-35.475 23.816-68.403 45.347-97.87l71.728-98.154c3.917-5.36 9.998-8.202 16.165-8.202 4.094 0 8.226 1.254 11.784 3.854 8.918 6.518 10.866 19.032 4.347 27.949l-71.728 98.155c-18.403 25.184-31.443 53.325-38.758 83.648l-36.613 151.763c-3.363 13.933 3.227 28.168 16.021 34.624z" />
<glyph unicode="&#xe94d;" horiz-adv-x="1136" d="M396.894 335.994c14.952 7.544 32.896 1.91 40.854-12.826l56.478-104.579c4.352-8.059 13.622-12.126 22.501-9.886 8.877 2.243 15.098 10.232 15.098 19.389v152.702c-0.002 11.045-8.957 19.998-20.002 19.998s-20-8.957-20-20v-73.581l-18.882 34.96c-18.323 33.926-59.645 46.904-94.066 29.533-29.458-14.862-44.627-47.642-36.89-79.717l36.614-151.762c8.557-35.475 23.816-68.403 45.347-97.87l71.728-98.154c3.917-5.36 9.998-8.202 16.165-8.202 4.094 0 8.226 1.254 11.784 3.854 8.918 6.518 10.866 19.032 4.347 27.949l-71.728 98.155c-18.403 25.184-31.443 53.325-38.758 83.648l-36.613 151.763c-3.363 13.933 3.227 28.168 16.021 34.624z" />
<glyph unicode="&#xe94e;" horiz-adv-x="1136" d="M848.453 421.24c-11.803 0-22.914-3.022-32.602-8.328-9.813 25.565-34.603 43.766-63.581 43.766-12.499 0-24.211-3.4-34.288-9.301-10.773 23.437-34.454 39.76-61.893 39.76-10.014 0-19.52-2.19-28.090-6.088v95.622c0 37.544-30.544 68.090-68.091 68.090s-68.090-30.544-68.090-68.090v-34.669c0-11.043 8.954-20 20-20s20 8.957 20 20v34.667c0 15.488 12.602 28.090 28.090 28.090s28.091-12.602 28.091-28.090v-282.214c0-11.045 8.954-20 20-20 11.045 0 20 8.955 20 20v124.594c0 15.488 12.6 28.091 28.090 28.091s28.090-12.603 28.090-28.091v-124.594c0-11.045 8.955-20 20-20 11.046 0 20 8.955 20 20v94.133c0 15.49 12.6 28.091 28.091 28.091s28.090-12.602 28.090-28.091v-94.133c0-11.045 8.954-20 20-20s20 8.955 20 20v58.698c0 15.488 12.602 28.091 28.090 28.091s28.091-12.603 28.091-28.091v-168.758c0-44.968-6.824-89.528-20.28-132.435l-28.213-89.965c-3.304-10.539 2.56-21.763 13.101-25.067 1.992-0.626 4.005-0.922 5.989-0.922 8.509 0.002 16.398 5.474 19.078 14.021l28.213 89.965c14.672 46.787 22.112 95.374 22.112 144.403v168.758c0.002 37.541-30.542 68.086-68.088 68.086z" />
<glyph unicode="&#xe94f;" horiz-adv-x="1136" d="M848.453 421.24c-11.803 0-22.914-3.022-32.602-8.328-9.813 25.565-34.603 43.766-63.581 43.766-12.499 0-24.211-3.4-34.288-9.301-10.773 23.437-34.454 39.76-61.893 39.76-10.014 0-19.52-2.19-28.090-6.088v95.622c0 37.544-30.544 68.090-68.091 68.090s-68.090-30.544-68.090-68.090v-34.669c0-11.043 8.954-20 20-20s20 8.957 20 20v34.667c0 15.488 12.602 28.090 28.090 28.090s28.091-12.602 28.091-28.090v-282.214c0-11.045 8.954-20 20-20 11.045 0 20 8.955 20 20v124.594c0 15.488 12.6 28.091 28.090 28.091s28.090-12.603 28.090-28.091v-124.594c0-11.045 8.955-20 20-20 11.046 0 20 8.955 20 20v94.133c0 15.49 12.6 28.091 28.091 28.091s28.090-12.602 28.090-28.091v-94.133c0-11.045 8.954-20 20-20s20 8.955 20 20v58.698c0 15.488 12.602 28.091 28.090 28.091s28.091-12.603 28.091-28.091v-168.758c0-44.968-6.824-89.528-20.28-132.435l-28.213-89.965c-3.304-10.539 2.56-21.763 13.101-25.067 1.992-0.626 4.005-0.922 5.989-0.922 8.509 0.002 16.398 5.474 19.078 14.021l28.213 89.965c14.672 46.787 22.112 95.374 22.112 144.403v168.758c0.002 37.541-30.542 68.086-68.088 68.086z" />
<glyph unicode="&#xe950;" horiz-adv-x="1136" d="M525.963 473.739c-3.72 3.723-8.878 5.861-14.139 5.861s-10.421-2.138-14.141-5.861c-3.72-3.722-5.859-8.877-5.859-14.139s2.139-10.421 5.859-14.138c3.72-3.72 8.88-5.862 14.141-5.862 5.259 0 10.419 2.139 14.139 5.862 3.72 3.717 5.861 8.877 5.861 14.138 0 5.264-2.141 10.422-5.861 14.139z" />
<glyph unicode="&#xe951;" horiz-adv-x="1136" d="M525.963 473.739c-3.72 3.723-8.878 5.861-14.139 5.861s-10.421-2.138-14.141-5.861c-3.72-3.722-5.859-8.877-5.859-14.139s2.139-10.421 5.859-14.138c3.72-3.72 8.88-5.862 14.141-5.862 5.259 0 10.419 2.139 14.139 5.862 3.72 3.717 5.861 8.877 5.861 14.138 0 5.264-2.141 10.422-5.861 14.139z" />
<glyph unicode="&#xe952;" horiz-adv-x="1136" d="M640 912c8.837 0 16-7.164 16-16v-160c0-8.837-7.163-16-16-16h-160c-8.837 0-16 7.163-16 16v160c0 8.836 7.163 16 16 16h160zM480 960c-35.346 0-64-28.654-64-64v-160c0-35.346 28.654-64 64-64h160c35.346 0 64 28.654 64 64v160c0 35.346-28.654 64-64 64h-160z" />
<glyph unicode="&#xe953;" horiz-adv-x="1136" d="M640 912c8.837 0 16-7.164 16-16v-160c0-8.837-7.163-16-16-16h-160c-8.837 0-16 7.163-16 16v160c0 8.836 7.163 16 16 16h160zM480 960c-35.346 0-64-28.654-64-64v-160c0-35.346 28.654-64 64-64h160c35.346 0 64 28.654 64 64v160c0 35.346-28.654 64-64 64h-160z" />
<glyph unicode="&#xe954;" horiz-adv-x="1136" d="M228.79 721.070c8.536 2.288 17.309-2.778 19.597-11.314l41.41-154.547c2.288-8.536-2.778-17.309-11.314-19.597l-154.548-41.411c-8.535-2.286-17.309 2.779-19.596 11.314l-41.411 154.549c-2.287 8.536 2.778 17.309 11.314 19.595l154.548 41.411zM61.819 726.024c-34.142-9.147-54.403-44.242-45.255-78.384l41.411-154.547c9.148-34.142 44.242-54.403 78.384-45.254l154.548 41.41c34.142 9.149 54.403 44.243 45.254 78.384l-41.411 154.549c-9.147 34.142-44.242 54.403-78.382 45.254l-154.549-41.411z" />
<glyph unicode="&#xe955;" horiz-adv-x="1136" d="M228.79 721.070c8.536 2.288 17.309-2.778 19.597-11.314l41.41-154.547c2.288-8.536-2.778-17.309-11.314-19.597l-154.548-41.411c-8.535-2.286-17.309 2.779-19.596 11.314l-41.411 154.549c-2.287 8.536 2.778 17.309 11.314 19.595l154.548 41.411zM61.819 726.024c-34.142-9.147-54.403-44.242-45.255-78.384l41.411-154.547c9.148-34.142 44.242-54.403 78.384-45.254l154.548 41.41c34.142 9.149 54.403 44.243 45.254 78.384l-41.411 154.549c-9.147 34.142-44.242 54.403-78.382 45.254l-154.549-41.411z" />
<glyph unicode="&#xe956;" horiz-adv-x="1136" d="M907.936 801.071c-8.536 2.287-17.309-2.778-19.597-11.314l-41.411-154.547c-2.286-8.536 2.779-17.309 11.315-19.597l154.547-41.411c8.536-2.286 17.309 2.779 19.597 11.314l41.411 154.549c2.286 8.536-2.779 17.309-11.315 19.595l-154.547 41.412zM1074.907 806.024c34.142-9.148 54.403-44.242 45.254-78.384l-41.411-154.547c-9.147-34.142-44.242-54.403-78.382-45.254l-154.549 41.41c-34.142 9.149-54.403 44.243-45.254 78.384l41.411 154.549c9.147 34.142 44.242 54.403 78.382 45.255l154.549-41.411z" />
<glyph unicode="&#xe957;" horiz-adv-x="1136" d="M907.936 801.071c-8.536 2.287-17.309-2.778-19.597-11.314l-41.411-154.547c-2.286-8.536 2.779-17.309 11.315-19.597l154.547-41.411c8.536-2.286 17.309 2.779 19.597 11.314l41.411 154.549c2.286 8.536-2.779 17.309-11.315 19.595l-154.547 41.412zM1074.907 806.024c34.142-9.148 54.403-44.242 45.254-78.384l-41.411-154.547c-9.147-34.142-44.242-54.403-78.382-45.254l-154.549 41.41c-34.142 9.149-54.403 44.243-45.254 78.384l41.411 154.549c9.147 34.142 44.242 54.403 78.382 45.255l154.549-41.411z" />
<glyph unicode="&#xe958;" glyph-name="thumb-up" d="M893.214 619.634h-273.711l8.609 130.744c2.731 41.511-12.008 82.734-40.444 113.101-73.997 79.028-205.329 56.699-248.658-43.017l-87.276-200.829h-219.649c-17.721 0-32.085-14.366-32.085-32.085v-570.685c0-17.719 14.364-32.085 32.085-32.085h240.689c16.578 0 30.214 12.573 31.905 28.702h255.989c183.91 0 347.591 116.869 407.3 290.814l48.832 142.245c29.114 84.806-33.67 173.095-123.587 173.095zM64.171 555.463h176.518v-506.514h-176.518zM956.107 467.375l-48.832-142.247c-50.813-148.024-190.104-247.477-346.609-247.477h-255.807v503.228l93.004 214.010c13.779 31.712 45.026 52.203 79.604 52.203 49.931 0 89.927-42.082 86.609-92.498l-10.859-164.937c-1.213-18.483 13.454-34.193 32.017-34.193h307.978c45.633 0 77.747-44.819 62.895-88.089zM196.321 448.021c0-24.239-19.65-43.889-43.889-43.889s-43.889 19.65-43.889 43.889c0 24.239 19.65 43.889 43.889 43.889s43.889-19.65 43.889-43.889z" />
<glyph unicode="&#xe959;" glyph-name="right-quote-sign" d="M971.489 899.931h-319.266c-28.986 0-52.511-23.525-52.511-52.511v-319.266c0-28.987 23.525-52.511 52.511-52.511h152.807c-1.995-83.598-21.424-150.496-58.182-200.802-28.986-39.698-72.884-72.57-131.592-98.51-26.991-11.867-38.648-43.794-26.045-70.471l37.808-79.817c12.183-25.624 42.324-36.863 68.369-25.624 69.524 30.036 128.233 68.054 176.121 114.264 58.393 56.397 98.405 120.040 120.040 191.035s32.452 167.825 32.452 290.7v251.002c0 28.985-23.526 52.511-52.511 52.511zM111.361 0.629c68.684 29.931 127.076 67.948 175.281 114.054 58.917 56.397 99.141 119.83 120.775 190.299s32.451 167.615 32.451 291.435v251.002c0 28.986-23.524 52.511-52.511 52.511h-319.266c-28.986 0-52.511-23.525-52.511-52.511v-319.266c0-28.987 23.525-52.511 52.511-52.511h152.807c-1.995-83.598-21.424-150.496-58.182-200.802-28.986-39.698-72.885-72.57-131.592-98.51-26.991-11.867-38.648-43.794-26.045-70.471l37.703-79.606c12.184-25.624 42.535-36.968 68.58-25.624z" />
<glyph unicode="&#xe95a;" glyph-name="logo" d="M405.225 488.25l-151.372-200.152 36.346 115.877h-83.231l62.96 200.152h83.052l-36.346-115.878h88.59zM101.143 604.128h129.938l-26.509-84.275h-130.22l26.791 84.275zM194.63 488.25h-128.317l-26.791-84.274h128.599l26.509 84.274zM243.137 372.373h-214.331l-26.791-84.274h214.331l26.791 84.274zM646.933 451.562h-120.964l24.194 152.566h119.653l-6.319-40.321h-72.797l-2.18-13.513h57.104l-5.883-37.052h-57.104l-3.487-21.359h74.105l-6.322-40.321zM691.698 604.128h67.13c16.129 0 28.914-4.068 38.36-12.205 9.443-8.137 14.166-18.598 14.166-31.385 0-16.274-5.883-29.641-17.653-40.103s-26.882-15.692-45.335-15.692h-25.719l-8.282-53.18h-46.642l23.975 152.566zM732.673 565.987l-4.359-27.244h15.476c6.1 0 11.042 1.308 14.818 3.923 3.779 2.615 5.667 6.539 5.667 11.769 0 7.701-4.939 11.552-14.818 11.552h-16.784zM855.497 451.562h-46.642l24.192 152.566h46.642l-24.192-152.566zM933.986 523.486c0-9.59 3.268-17.363 9.807-23.321 6.686-5.957 15.621-8.936 26.81-8.936 16.129 0 29.931 3.85 41.411 11.551l-7.41-45.988c-13.949-5.521-26.81-8.282-38.579-8.282-23.828 0-43.080 6.684-57.757 20.052-14.674 13.368-22.012 30.731-22.012 52.090 0 26.154 8.427 47.078 25.283 62.77 16.853 15.838 38.94 23.757 66.256 23.757 16.42 0 31.821-2.761 46.206-8.282l-7.627-43.372c-11.189 5.958-24.122 8.936-38.796 8.936-13.513 0-24.194-3.705-32.041-11.116-7.699-7.265-11.55-17.218-11.55-29.859zM599.231 290.614h-95.928l19.835 125.741h38.768l-14.785-92.509h57.341l-5.231-33.232zM680.821 418.869c19.595 0 35.221-5.628 46.882-16.885s17.491-25.987 17.491-44.189c0-19.879-6.791-36.464-20.374-49.758-13.585-13.291-30.294-19.938-50.13-19.938-19.595 0-35.221 5.628-46.882 16.884s-17.491 25.987-17.491 44.189c0 19.879 6.791 36.465 20.377 49.758 13.704 13.293 30.413 19.939 50.127 19.939zM675.773 323.307c9.136 0 16.407 3.232 21.816 9.698 5.411 6.466 8.115 14.731 8.115 24.79 0 7.065-2.345 13.113-7.031 18.143-4.689 5.149-10.998 7.724-18.932 7.724-8.896 0-16.111-3.293-21.638-9.88-5.53-6.347-8.295-14.55-8.295-24.61 0-6.946 2.345-13.054 7.031-18.321 4.689-5.030 11.001-7.545 18.935-7.545zM828.032 418.869c19.595 0 35.224-5.628 46.882-16.885 11.661-11.257 17.491-25.987 17.491-44.189 0-19.879-6.791-36.464-20.374-49.758-13.585-13.291-30.294-19.938-50.13-19.938-19.593 0-35.221 5.628-46.882 16.884-11.659 11.256-17.491 25.987-17.491 44.189 0 19.879 6.791 36.465 20.377 49.758 13.704 13.293 30.413 19.939 50.127 19.939zM822.984 323.307c9.136 0 16.407 3.232 21.819 9.698 5.409 6.466 8.115 14.731 8.115 24.79 0 7.065-2.345 13.113-7.034 18.143-4.687 5.149-10.998 7.724-18.932 7.724-8.896 0-16.108-3.293-21.638-9.88-5.53-6.347-8.295-14.55-8.295-24.61 0-6.946 2.345-13.054 7.031-18.321 4.689-5.030 11.001-7.545 18.935-7.545zM899.366 383.123l5.228 33.232h110.896l-5.231-33.232h-36.242l-14.787-92.509h-38.587l14.785 92.509h-36.062z" />
<glyph unicode="&#xe95b;" glyph-name="epiccoin" d="M386.786 958.427c-0.262-0.918-46.677-148.159-102.924-327.129s-102.662-326.343-103.056-327.523c-0.787-1.704 13.374-1.967 132.556-1.967 126.263 0 133.212-0.131 132.556-2.229-2.36-7.736-111.316-355.319-111.84-356.499-0.656-1.704 11.538-7.473 14.685-6.949 1.311 0.262 110.005 142.914 248.854 326.343l246.363 325.818-288.451 1.311 54.937 175.037c30.287 96.238 56.379 179.626 58.083 185.264l3.147 10.096h-142.128c-112.627 0-142.39-0.393-142.783-1.573z" />
<glyph unicode="&#xe95c;" glyph-name="dollar1" d="M650.050 958.331c-85.409-4.855-166.419-41.112-226.797-101.49-28.369-28.065-49.304-57.041-66.598-91.477-7.889-15.625-10.012-21.087-10.468-28.217-1.517-21.087 11.074-35.044 31.554-35.044 15.929 0 25.335 6.978 33.223 24.879 20.632 45.966 61.137 92.388 105.737 121.211 27.155 17.598 64.626 32.768 98.456 39.898 24.728 5.31 68.873 6.675 95.118 3.034 46.876-6.523 92.843-25.486 131.679-54.007 16.536-12.136 47.028-42.629 59.164-59.164 28.52-38.836 47.483-84.802 54.007-131.679 3.641-26.245 2.276-70.391-3.034-95.118-8.951-42.78-28.065-84.651-53.855-118.329-11.529-15.17-37.926-41.415-53.551-53.248-16.839-12.591-37.623-25.183-54.31-32.768-7.282-3.337-13.35-7.433-16.839-11.378-14.715-16.232-8.799-42.932 11.074-51.276 13.805-5.765 28.975-1.517 61.592 17.446 77.065 44.753 132.286 113.171 160.047 197.973 11.226 34.133 16.384 67.963 16.384 107.71 0 51.731-8.495 94.511-28.065 139.719-40.657 93.905-123.032 167.633-220.274 197.063-22.452 6.827-54.007 12.591-73.88 13.653-8.495 0.455-18.811 1.062-23.059 1.365-4.096 0.152-16.384-0.152-27.307-0.759zM631.087 737.906c0-0.607-38.381-111.957-40.201-116.357-0.607-1.669 3.034-5.158 13.198-12.743 26.852-20.025 58.103-52.641 76.914-80.251l8.951-13.047 46.725 55.22c25.79 30.492 47.028 55.979 47.18 56.585 0.303 0.607-20.783 1.062-46.725 0.759-42.932-0.455-47.18-0.152-46.27 1.972 4.096 10.923 37.319 106.041 37.319 107.103 0 0.759-20.025 1.365-48.545 1.365-26.7 0-48.545-0.303-48.545-0.607zM314.027 638.236c-80.706-9.102-154.889-45.056-211.93-103.159-28.217-28.672-47.18-55.372-65.081-91.629-24.728-50.517-35.499-96.787-35.65-153.221-0.152-53.096 8.344-95.422 28.065-141.236 45.511-104.827 142.905-184.017 252.89-205.255 26.396-5.006 41.87-6.372 71.908-6.372 56.434 0.152 102.703 10.923 153.221 35.65 36.257 17.901 62.957 36.864 91.629 65.081 68.115 66.901 104.827 154.738 104.827 250.615 0 119.694-59.771 229.528-160.654 295.367-43.842 28.52-100.124 48.393-153.676 54.158-16.991 1.972-58.861 1.82-75.548 0zM403.532 570.121c37.016-6.827 75.7-22.604 107.103-43.842 33.678-22.604 57.041-45.966 79.644-79.644 45.359-67.205 59.468-150.642 39.291-229.528-27.307-105.434-112.564-186.292-220.729-209.199-24.728-5.31-68.873-6.675-95.118-3.034-46.876 6.523-92.843 25.486-131.679 54.007-16.536 12.136-47.028 42.629-59.164 59.164-28.52 38.836-47.483 84.802-54.007 131.679-3.641 26.245-2.276 70.391 3.034 95.118 25.486 120.301 121.515 210.261 242.726 227.556 21.997 3.186 65.991 1.972 88.898-2.276zM288.54 416.597c-1.365-1.365-1.82-16.991-1.82-60.681v-58.861h-14.867c-19.721 0-20.025-0.303-20.025-20.935 0-14.715 0.152-15.322 3.944-18.356 3.489-2.731 6.22-3.186 17.446-3.186 12.44 0 13.502-0.303 13.502-3.034 0-2.882-1.062-3.034-14.867-3.034-19.721 0-20.025-0.303-20.025-20.935 0-14.715 0.152-15.322 3.944-18.356 3.489-2.731 6.22-3.186 17.446-3.186h13.502v-20.177c0-13.653 0.607-20.783 1.82-21.997 2.579-2.579 40.808-2.579 43.387 0 1.214 1.214 1.82 8.344 1.82 21.997v20.177h24.121c21.997 0 24.424 0.303 28.065 3.186 3.793 3.034 3.944 3.641 3.944 18.66 0 21.39 1.214 20.632-30.796 20.632-23.666 0-25.335 0.152-25.335 2.731 0 2.731 2.276 2.882 34.588 3.793 35.195 1.062 44.297 2.276 61.44 8.647 19.873 7.433 35.802 24.728 42.325 46.118 4.855 15.474 4.855 40.050 0 54.31-9.254 27.003-29.127 44.297-59.62 51.883-8.192 1.972-19.266 2.427-65.991 2.427-41.567 0-56.585-0.455-57.951-1.82zM406.566 372.3c7.433-3.944 13.35-9.709 17.143-16.839 4.399-8.040 4.703-29.127 0.455-37.167-9.102-17.294-21.542-21.087-68.722-21.239h-21.694v79.038l33.83-0.455c29.431-0.455 34.285-0.759 38.988-3.337z" />
<glyph unicode="&#xe95d;" glyph-name="click" d="M992 21.333c-17.664 0-32 14.336-32 32v789.333c0 29.397-23.936 53.333-53.333 53.333h-789.333c-29.397 0-53.333-23.936-53.333-53.333v-533.333c0-17.664-14.336-32-32-32s-32 14.336-32 32v533.333c0 64.725 52.608 117.333 117.333 117.333h789.333c64.725 0 117.333-52.608 117.333-117.333v-789.333c0-17.664-14.336-32-32-32zM992 746.667h-960c-17.664 0-32 14.336-32 32s14.336 32 32 32h960c17.664 0 32-14.336 32-32s-14.336-32-32-32zM352 54.187c-17.664 0-32 14.336-32 32v436.48c0 52.949 43.093 96 96 96s96-43.051 96-96v-256c0-17.664-14.336-32-32-32s-32 14.336-32 32v256c0 17.664-14.379 32-32 32s-32-14.336-32-32v-436.48c0-17.664-14.336-32-32-32zM480 128c-17.664 0-32 14.336-32 32v106.667c0 52.949 43.093 96 96 96s96-43.051 96-96v-42.667c0-17.664-14.336-32-32-32s-32 14.336-32 32v42.667c0 17.664-14.379 32-32 32s-32-14.336-32-32v-106.667c0-17.664-14.336-32-32-32zM608 85.333c-17.664 0-32 14.336-32 32v106.667c0 52.949 43.093 96 96 96s96-43.051 96-96v-85.333c0-17.664-14.336-32-32-32s-32 14.336-32 32v85.333c0 17.664-14.379 32-32 32s-32-14.336-32-32v-106.667c0-17.664-14.336-32-32-32zM864-64c-17.664 0-32 14.336-32 32v170.667c0 17.664-14.379 32-32 32s-32-14.336-32-32v-64c0-17.664-14.336-32-32-32s-32 14.336-32 32v64c0 52.949 43.093 96 96 96s96-43.051 96-96v-170.667c0-17.664-14.336-32-32-32zM228.693-64c-12.373 0-24.149 7.211-29.355 19.328-30.251 70.187-57.515 95.488-77.397 113.963-18.005 16.725-36.608 33.963-36.608 69.376 0 12.459 5.675 74.667 117.333 74.667 78.421 0 138.453-58.752 175.061-108.075 10.539-14.208 7.552-34.219-6.656-44.757-14.123-10.539-34.176-7.509-44.757 6.656-22.784 30.677-69.12 82.176-123.648 82.176-44.587 0-53.632-12.288-53.675-12.416 0.341-4.736 0.341-5.717 16.469-20.693 22.699-21.077 57.045-52.949 92.629-135.552 6.997-16.213-0.512-35.072-16.725-42.069-4.096-1.749-8.405-2.603-12.672-2.603z" />
<glyph unicode="&#xe95e;" glyph-name="box" d="M996.531 742.075c0 12.991-7.847 24.696-19.863 29.634l-452.494 185.889c-7.801 3.204-16.547 3.204-24.348 0l-452.494-185.889c-12.016-4.936-19.863-16.643-19.863-29.634v-588.149c0-12.991 7.845-24.696 19.863-29.634l452.494-185.889c7.717-3.17 16.391-3.238 24.308 0.002 0.386 0.128-16.745-6.898 452.534 185.887 12.018 4.936 19.863 16.643 19.863 29.634zM512 588.126l-166.727 68.492 360.314 157.182 177.878-73.074zM91.543 691.585l143.847-59.094v-166.719c0-17.692 14.344-32.037 32.037-32.037s32.037 14.344 32.037 32.037v140.397l180.501-74.151v-516.185l-388.421 159.567zM512 893.33l111.059-45.624-360.314-157.182-122.21 50.205zM544.037 532.018l388.421 159.567v-516.185l-388.421-159.567z" />
<glyph unicode="&#xe95f;" glyph-name="clock" d="M512 960c-282.743 0-512-229.257-512-512 0-282.746 229.257-512 512-512 282.746 0 512 229.254 512 512 0 282.743-229.254 512-512 512zM512 22.854c-234.743 0-425.143 190.4-425.143 425.146 0 234.743 190.4 425.143 425.143 425.143 234.746 0 425.146-190.4 425.146-425.143 0-234.746-190.4-425.146-425.146-425.146zM711.654 303.315l-162.969 117.828v282.856c0 5.028-4.114 9.143-9.143 9.143h-54.971c-5.028 0-9.143-4.115-9.143-9.143v-314.742c0-2.972 1.372-5.715 3.772-7.428l189.030-137.83c4.109-2.97 9.824-2.054 12.8 1.946l32.685 44.57c2.97 4.23 2.054 9.946-2.061 12.8z" />
<glyph unicode="&#xe960;" glyph-name="exit1" horiz-adv-x="916" d="M734.316-10.105h-555.789c-55.73 0-101.053 43.558-101.053 97.011v145.516h101.053v-145.516h555.789v776.084h-555.789v-145.516h-101.053v145.516c0 53.453 45.322 97.011 101.053 97.011h555.789c55.733 0 101.053-43.558 101.053-97.011v-776.084c0-53.453-45.32-97.011-101.053-97.011zM416.303 703.311l-71.343-68.685 116.008-111.174h-434.021v-97.011h433.566l-115.654-111.271 71.544-68.489 237.776 228.701-237.877 227.928z" />
<glyph unicode="&#xe961;" glyph-name="coins" d="M102.531 812.544c23.396 19.956 104.694 49.152 192.381 49.152s168.985-29.196 192.381-49.152h102.531c0 110.248-202.555 147.456-294.912 147.456s-294.912-37.208-294.912-147.456v-589.824c0-110.346 202.555-147.456 294.912-147.456 14.107 0 31.015 1.032 49.152 2.851v98.746c-15.974-1.966-32.342-3.244-49.152-3.244-94.175 0-180.978 33.62-196.608 53.379v34.062c64.881-27.329 146.719-38.289 196.608-38.289 14.156 0 31.015 1.032 49.152 2.851v98.746c-15.974-1.966-32.342-3.248-49.152-3.248-95.158 0-182.305 34.312-196.608 53.973v33.522c64.881-27.329 146.719-38.285 196.608-38.285 14.156 0 31.015 1.028 49.152 2.847v98.742c-15.974-1.966-32.342-3.24-49.152-3.24-95.158 0-182.305 34.312-196.608 53.973v33.52c64.881-27.327 146.719-38.292 196.608-38.292 14.156 0 31.015 1.032 49.152 2.851v98.748c-15.974-1.966-32.342-3.246-49.152-3.246-95.158 0-182.305 34.309-196.608 53.97v33.522c64.881-27.329 146.719-38.292 196.608-38.292 14.156 0 31.015 1.031 49.152 2.85v98.7c-15.974-1.917-32.342-3.192-49.152-3.192-87.687-0.393-168.985 28.751-192.381 48.756zM688.128 714.24c-92.357 0-294.912-37.208-294.912-147.456v-442.368c0-110.346 202.555-147.456 294.912-147.456s294.912 37.11 294.912 147.456v442.368c0 110.248-202.506 147.456-294.912 147.456zM884.736 424.145c-14.254-19.661-101.401-53.969-196.608-53.969-95.158 0-182.305 34.308-196.608 53.969v33.522c64.881-27.329 146.719-38.289 196.608-38.289s131.727 11.010 196.608 38.289v-33.522zM884.736 276.689c-14.254-19.661-101.401-53.969-196.608-53.969-95.158 0-182.305 34.308-196.608 53.969v33.522c64.881-27.329 146.719-38.289 196.608-38.289s131.727 11.010 196.608 38.289v-33.522zM688.128 615.936c87.687 0 168.985-29.196 192.381-49.152-23.396-20.005-104.694-49.152-192.381-49.152s-168.985 29.147-192.381 49.152c23.396 19.956 104.694 49.152 192.381 49.152zM688.128 75.264c-94.175 0-180.978 33.624-196.608 53.383v34.062c64.881-27.329 146.719-38.294 196.608-38.294s131.727 11.014 196.608 38.294v-34.062c-15.63-19.759-102.433-53.383-196.608-53.383z" />
<glyph unicode="&#xe962;" glyph-name="lightning" horiz-adv-x="729" d="M302.696 569.263l380.053 377.649 43.768-23.49-323.236-343.518 126.486-87.133-475.417-545.089-40.355 47.782 401.334 476.227-112.632 97.572z" />
<glyph unicode="&#xe963;" glyph-name="battle-wait" d="M682.667-64h-682.667v42.667c0 150.756 140.373 256 341.333 256s341.333-105.244 341.333-256v-42.667zM92.103 21.333h498.489c-25.515 77.141-120.917 128-249.23 128-128.284 0-223.744-50.859-249.259-128zM341.333 362.667c-47.076 0-85.333 38.286-85.333 85.333 0 47.104 38.258 85.333 85.333 85.333v85.333c-94.123 0-170.667-76.544-170.667-170.667s76.544-170.667 170.667-170.667c62.891 0 117.276 34.588 146.916 85.333h-146.916zM725.333 362.667c-164.693 0-298.667 133.973-298.667 298.667s133.973 298.667 298.667 298.667 298.667-133.973 298.667-298.667-133.973-298.667-298.667-298.667zM725.333 874.667c-117.646 0-213.333-95.687-213.333-213.333s95.687-213.333 213.333-213.333 213.333 95.687 213.333 213.333-95.687 213.333-213.333 213.333zM853.333 618.667h-170.667v213.333h85.333v-128h85.333v-85.333z" />
<glyph unicode="&#xe964;" horiz-adv-x="1223" d="M294.059 943.929c8.932 10.24 21.76 16.071 35.243 16.071h564.508c13.483 0 26.311-5.86 35.243-16.071l282.254-323.044c7.328-8.393 11.797-19.446 11.797-31.544 0-12.636-4.876-24.134-12.848-32.714l0.027 0.030-564.508-605.753c-8.559-9.178-20.72-14.901-34.218-14.905h-0.001c-12.942 0-25.316 5.404-34.219 14.933l-564.508 605.724c-7.96 8.554-12.846 20.062-12.846 32.711 0 12.111 4.479 23.176 11.87 31.629l-0.048-0.056 282.254 322.958zM515.556 864.74h-165.063l-199.026-227.783h189.611l174.478 227.783zM332.658 541.696h-176.555l314.368-337.266-137.785 337.266zM752.668 204.43l314.311 337.266h-176.555l-137.756-337.266zM788.622 541.696h-354.133l177.067-433.465 177.067 433.493zM762.965 636.985h-302.82l151.41 197.689 151.41-197.689zM882.034 636.985l-174.478 227.726h165.063l199.026-227.783h-189.582z" />
<glyph unicode="&#xe965;" glyph-name="enemy-battle" horiz-adv-x="1280" d="M1010.347 946.347c-8.38 8.433-19.986 13.653-32.811 13.653-2.738 0-5.421-0.238-8.028-0.694l0.277 0.040-279.296-46.564c-11.093-1.849-21.22-7.68-28.331-16.412-18.148-22.187-408.718-501.476-427.804-520.619l-34.475 34.503c-8.413 8.484-13.622 20.157-13.653 33.046v97.77h-93.099v-97.735c0.124-38.577 15.711-73.489 40.885-98.883l34.522-34.493-154.88-154.937c-8.431-8.419-13.647-20.055-13.647-32.91s5.216-24.492 13.646-32.91l139.634-139.521c8.404-8.45 20.040-13.68 32.896-13.68s24.492 5.23 32.894 13.678l0.002 0.002 154.766 155.022 34.702-34.702c25.128-25.3 59.933-40.961 98.397-40.961 0.137 0 0.275 0 0.412 0.001h97.743v93.099h-97.764c-12.402 0-24.149 4.836-32.939 13.71l-34.788 34.702c13.596 13.653 505.771 415.403 520.761 427.662 8.761 7.168 14.564 17.209 16.441 28.388l46.535 279.324c0.401 2.289 0.63 4.925 0.63 7.615 0 12.813-5.198 24.413-13.6 32.805v0zM186.197 48.299l-73.842 73.785 121.913 122.112 73.899-73.899-121.998-122.027zM887.922 659.029c-22.044-18.119-494.763-403.826-513.849-422.884l-73.956 73.927c24.974 25.031 400.64 486.343 423.083 513.764l197.746 32.967-32.996-197.774zM573.355 915.484l-263.111 43.861c-2.352 0.424-5.060 0.667-7.824 0.667-12.831 0-24.442-5.225-32.82-13.663l-0.003-0.003c-8.405-8.393-13.604-19.994-13.604-32.809 0-2.698 0.23-5.342 0.673-7.914l-0.039 0.275 46.535-279.324c1.593-9.5 6.030-18.204 12.743-25.031l71.253 86.926-28.103 168.306 146.148-24.348 68.124 83.058zM879.36 429.796l71.964 58.88c50.972-61.867 88.718-107.292 94.322-112.924l34.475 34.503c8.676 8.732 13.71 20.764 13.653 33.052v97.764h93.099v-97.735c-0.124-38.577-15.711-73.489-40.885-98.883l-34.522-34.493 154.88-154.937c8.431-8.419 13.647-20.055 13.647-32.91s-5.216-24.492-13.646-32.91l-139.634-139.521c-8.404-8.45-20.040-13.68-32.896-13.68s-24.492 5.23-32.894 13.678l-0.002 0.002-154.766 155.022-34.702-34.702c-25.128-25.3-59.933-40.961-98.397-40.961-0.137 0-0.275 0-0.412 0.001h-97.743v93.099h97.764c12.402 0 24.149 4.836 32.939 13.71l34.788 34.702c-4.551 4.551-62.379 52.338-138.012 114.432l73.244 59.932c70.514-58.027 124.16-102.571 130.332-108.743l73.956 73.927c-7.595 7.623-47.758 55.723-100.551 119.723zM1167.644 122.084l-73.813-73.785-122.027 122.027 73.956 73.87 121.884-122.112z" />
<glyph unicode="&#xe966;" horiz-adv-x="1223" d="M294.059 943.929c8.932 10.24 21.76 16.071 35.243 16.071h564.508c13.483 0 26.311-5.86 35.243-16.071l282.254-323.044c7.328-8.393 11.797-19.446 11.797-31.544 0-12.636-4.876-24.134-12.848-32.714l0.027 0.030-564.508-605.753c-8.559-9.178-20.72-14.901-34.218-14.905h-0.001c-12.942 0-25.316 5.404-34.219 14.933l-564.508 605.724c-7.96 8.554-12.846 20.062-12.846 32.711 0 12.111 4.479 23.176 11.87 31.629l-0.048-0.056 282.254 322.958zM515.556 864.74h-165.063l-199.026-227.783h189.611l174.478 227.783zM332.658 541.696h-176.555l314.368-337.266-137.785 337.266zM752.668 204.43l314.311 337.266h-176.555l-137.756-337.266zM788.622 541.696h-354.133l177.067-433.465 177.067 433.493zM762.965 636.985h-302.82l151.41 197.689 151.41-197.689zM882.034 636.985l-174.478 227.726h165.063l199.026-227.783h-189.582z" />
<glyph unicode="&#xe967;" glyph-name="diamond" horiz-adv-x="1210" d="M290.956 943.929c8.835 10.219 21.529 16.071 34.862 16.071h558.545c13.334 0 26.028-5.852 34.863-16.071l279.273-323.041c15.956-18.457 15.518-46.322-1.008-64.245l-558.545-605.702c-8.794-9.536-21.042-14.941-33.854-14.941s-25.060 5.405-33.854 14.941l-558.545 605.702c-16.528 17.923-16.965 45.788-1.009 64.245l279.273 323.041zM510.095 864.744h-163.306l-196.925-227.785h187.603l172.628 227.785zM329.154 541.702h-174.693l311.015-337.275-136.322 337.275zM744.706 204.428l311.017 337.275h-174.694l-136.322-337.275zM780.288 541.702h-350.394l175.197-433.456 175.197 433.456zM754.911 636.959h-299.641l149.821 197.692 149.821-197.692zM872.715 636.959l-172.628 227.785h163.306l196.925-227.785h-187.603z" />
<glyph unicode="&#xe968;" glyph-name="vs-icon" horiz-adv-x="983" d="M61.604 685.978l-8.253 121.549 55.419-80.343 53.35-49.459v-90.655l18.473-20.603-24.627-152.463 18.473-80.353 16.415-72.11 49.254 100.956 114.934 195.738 47.206 28.836 184.689 278.149h10.26l65.679 94.781v-28.846l-28.713-41.196h8.202l-71.823-121.559 16.415-6.185-59.515-80.353 16.415 4.116-38.994-45.322h14.367l-86.19-121.559 6.144-20.603-92.344-105.083-14.367-39.148-14.367-6.185-104.663-146.278-8.212-53.576-45.148-16.486-57.467-47.38-20.521-53.565-16.415 14.418-12.339-53.565h-12.319l-41.021-55.644 0.031 74.168 40.991 74.179 45.169 111.258 6.154 138.045-26.675 86.528-34.888 70.062 30.781 24.719 4.096 20.603v51.507l16.425 8.243-20.48 90.655zM451.492 420.188l-4.096-22.671 22.569-4.116 22.579-14.418h51.302l53.361 35.021 41.042 14.428 86.2 24.719 49.254 24.719h75.93l-28.723-41.206-51.302-49.449-75.94-78.285-26.685-10.312-4.096 88.596-24.637-32.963-41.042-14.418 10.26-18.545-30.781-55.634-16.415-14.418h-41.052l-18.473-24.73 34.888-30.904-43.090-8.243-53.361-26.778-30.781-8.243 38.984-20.603 80.046-22.671 8.212-10.301 41.042 4.127 41.042 49.449 67.727 43.264 16.415 30.904 22.579 10.301 112.876 125.686 88.248 96.84 14.367 39.148 43.1 4.116-18.473 41.206-12.319 51.507-26.675-28.846h-49.254l-102.615-30.904h-30.792l-53.361-16.486-12.319-16.476-80.036-37.089 28.733 65.935 24.627 20.603 34.888 24.719 84.142 70.052 34.888-37.079 41.042 20.603 34.898-20.603-4.106 61.809 18.473 22.661-8.212 32.973 8.212 57.682 30.781 61.819-92.355-55.634h-43.090v-10.301l-20.521-30.904-45.158-22.661 6.164 22.661-123.136-98.898-114.924-135.987-22.579-72.11-18.473-22.661z" />
<glyph unicode="&#xe969;" glyph-name="stick" horiz-adv-x="1303" d="M25.568-49.045l89.994 3.435 25.568-18.39 65.408 36.34 218.186 209.692 181.027 263.55 35.356 5.674 28.381 57.674 27.532 10.64 33.555 65.206-32.119 93.91 4.908 72.573-2.783 45.017 65.406 36.339 174.262 8.344 131.209-24.886 47.798 17.242 38.139-39.344c-15.32-19.687 28.43-125.448 52.222-175.869l-71.033-188.47-72.28-137.942 3.766-30.504 36.338 20.189 93.656 126.536 95.488 188.088 7.722 148.638-22.623 61.933 13.289 58.604-41.481 93.364-100.338-18.495-31.297 19.863c-164.001 2.013-347.078-29.855-418.118-46.041-40.571-2.363-124.793-18.112-137.1-62.201-12.309-44.089 14.692-116.009 29.729-146.458l-41.67-116.278-44.030-47.746 2.783-45.016-158.799-227.919-119.359-75.625-213.702-160.638-20.557-62.641 25.568-18.39z" />
<glyph unicode="&#xe96a;" glyph-name="sub" horiz-adv-x="788" d="M29.719 162.787l328.206-216.014c21.822-14.365 50.021-14.365 71.843 0l328.205 216.014c18.545 12.204 29.72 33.002 29.72 55.304v675.834c0 36.492-29.389 66.075-65.641 66.075h-656.41c-36.252 0-65.641-29.583-65.641-66.075v-675.834c0-22.302 11.176-43.1 29.719-55.304zM147.692 497.548c135.948 0 246.154 110.918 246.154 247.742 0-136.824 110.206-247.742 246.154-247.742-135.948 0-246.154-110.918-246.154-247.742 0 136.825-110.206 247.742-246.154 247.742z" />
<glyph unicode="&#xe96b;" d="M682.667-64h-682.667v42.667c0 150.741 140.373 256 341.333 256s341.333-105.259 341.333-256v-42.667zM92.117 21.333h498.475c-25.515 77.141-120.917 128-249.216 128s-223.744-50.859-249.259-128z" />
<glyph unicode="&#xe96c;" d="M682.667-64h-682.667v42.667c0 150.741 140.373 256 341.333 256s341.333-105.259 341.333-256v-42.667zM92.117 21.333h498.475c-25.515 77.141-120.917 128-249.216 128s-223.744-50.859-249.259-128z" />
<glyph unicode="&#xe96d;" d="M341.333 362.667c-47.061 0-85.333 38.272-85.333 85.333 0 47.104 38.272 85.333 85.333 85.333v85.333c-94.123 0-170.667-76.544-170.667-170.667s76.544-170.667 170.667-170.667c62.891 0 117.291 34.603 146.901 85.333h-146.901z" />
<glyph unicode="&#xe96e;" d="M341.333 362.667c-47.061 0-85.333 38.272-85.333 85.333 0 47.104 38.272 85.333 85.333 85.333v85.333c-94.123 0-170.667-76.544-170.667-170.667s76.544-170.667 170.667-170.667c62.891 0 117.291 34.603 146.901 85.333h-146.901z" />
<glyph unicode="&#xe96f;" d="M725.333 362.667c-164.693 0-298.667 133.973-298.667 298.667s133.973 298.667 298.667 298.667c164.693 0 298.667-133.973 298.667-298.667s-133.973-298.667-298.667-298.667zM725.333 874.667c-117.632 0-213.333-95.701-213.333-213.333s95.701-213.333 213.333-213.333c117.632 0 213.333 95.701 213.333 213.333s-95.701 213.333-213.333 213.333z" />
<glyph unicode="&#xe970;" d="M725.333 362.667c-164.693 0-298.667 133.973-298.667 298.667s133.973 298.667 298.667 298.667c164.693 0 298.667-133.973 298.667-298.667s-133.973-298.667-298.667-298.667zM725.333 874.667c-117.632 0-213.333-95.701-213.333-213.333s95.701-213.333 213.333-213.333c117.632 0 213.333 95.701 213.333 213.333s-95.701 213.333-213.333 213.333z" />
<glyph unicode="&#xe971;" d="M853.333 618.667h-170.667v213.333h85.333v-128h85.333v-85.333z" />
<glyph unicode="&#xe972;" d="M853.333 618.667h-170.667v213.333h85.333v-128h85.333v-85.333z" />
<glyph unicode="&#xe973;" glyph-name="big-plus" d="M625.275-40.834h-251.682v375.559h-373.593v247.75h373.593v377.525h251.682v-377.525h375.559v-247.75h-375.559v-375.559z" />
<glyph unicode="&#xe974;" glyph-name="circle-plus" d="M485.046 960c-267.458 0-485.053-217.595-485.053-485.053s217.595-485.053 485.053-485.053c267.459 0 485.054 217.595 485.054 485.053s-217.546 485.053-485.054 485.053zM727.574 426.442h-194.022v-194.021h-97.011v194.021h-194.021v97.011h194.021v194.021h97.011v-194.021h194.022v-97.011z" />
<glyph unicode="&#xe975;" glyph-name="protect" horiz-adv-x="916" d="M784.837 766.863c-173.811 0-311.95 173.128-313.314 174.925-19.099 24.282-61.643 24.282-80.742 0-1.364-1.797-139.502-174.925-313.313-174.925-27.891 0-50.526-21.757-50.526-48.564v-339.948c0-184.881 341.709-363.154 380.665-382.874 7.377-3.74 15.461-5.583 23.546-5.583s16.168 1.843 23.546 5.583c38.956 19.769 380.666 197.993 380.666 382.874v339.948c0 26.807-22.636 48.564-50.526 48.564zM478.091 214.647l-93.827 36.034 73.363 176.237h-209.229l137.634 264.526 90.391-43.464-64.573-123.934h194.984l-128.742-309.399z" />
<glyph unicode="&#xe976;" glyph-name="eye" horiz-adv-x="1434" d="M682.658 942.933c-384.354 0-665.6-460.8-665.6-460.8s281.247-460.8 665.6-460.8c384.356 0 665.601 460.8 665.601 460.8s-281.245 460.8-665.601 460.8zM682.658 218.822c-133.665 0-242.037 117.83-242.037 263.311s108.372 263.314 242.037 263.314c133.667 0 242.034-117.833 242.034-263.314s-108.367-263.311-242.034-263.311zM682.658 350.476c66.834 0 121.018 58.945 121.018 131.657s-54.183 131.657-121.018 131.657c-66.836 0-121.018-58.945-121.018-131.657s54.182-131.657 121.018-131.657z" />
<glyph unicode="&#xe977;" glyph-name="art" horiz-adv-x="1003" d="M687.151 706.355c0-57.675-46.443-104.433-103.776-104.433-57.237 0-103.729 46.758-103.729 104.433s46.492 104.433 103.729 104.433c57.333 0 103.776-46.758 103.776-104.433zM394.438 253.937c0-43.279-34.831-78.349-77.771-78.349-42.989 0-77.82 35.070-77.82 78.349 0 43.234 34.831 78.302 77.82 78.302 42.94 0 77.771-35.068 77.771-78.302zM403.027 552.41c0-57.675-46.443-104.433-103.729-104.433-57.284 0-103.727 46.758-103.727 104.433 0 57.724 46.443 104.482 103.727 104.482 57.286 0 103.729-46.758 103.729-104.482zM929.869 507.196c-14.394-19.223-36.271-30.238-60.068-30.238h-187.063c-47.164 0-89.67-24.346-113.805-65.114-24.179-40.768-25.139-90.086-2.686-131.87l89.094-165.587c11.42-21.109 12.186-45.841 2.159-67.77-9.931-21.835-29.026-37.293-52.294-42.364-31.042-6.763-63.14-10.24-95.428-10.338h-1.152c-238.784 0-440.866 194.908-450.654 434.931-5.086 125.109 39.39 243.55 125.174 333.541 85.832 90.039 201.41 139.696 325.433 139.696 200.113 0 378.4-135.107 433.525-328.518 6.573-22.991 2.063-47.191-12.235-66.37zM997.421 589.555c-62.178 218.142-263.204 370.445-488.843 370.445-139.855 0-270.163-55.888-366.982-157.472-96.771-101.487-146.908-235.049-141.15-376.047 11.035-270.746 238.88-490.481 508.179-490.481h1.295c36.32 0.096 72.448 4.009 107.422 11.593 41.165 8.986 74.846 36.228 92.501 74.825 17.655 38.643 16.265 82.212-3.885 119.601l-89.097 165.538c-12.713 23.669-12.137 51.588 1.489 74.63 13.673 23.089 37.758 36.855 64.386 36.855h187.063c42.029 0 80.7 19.418 106.031 53.28 25.333 33.86 33.201 76.61 21.589 117.233z" />
<glyph unicode="&#xe978;" glyph-name="instant" horiz-adv-x="875" d="M403.966-8.311v342.871c0 28.64-23.392 51.97-52.113 51.97l-294.165-3.866 413.015 521.674v-342.871c0-28.642 23.39-51.97 52.111-51.97l294.165 3.863-413.013-521.673zM869.090 535.966c-9.348 19.415-28.623 31.49-50.223 31.49h-290.048v336.882c0 23.956-14.626 44.531-37.293 52.452-22.615 7.921-46.976 0.869-61.99-17.726l-417.276-520.223c-13.512-16.809-16.030-39.364-6.683-58.78s28.622-31.49 50.222-31.49h290.048v-336.883c0-23.955 14.626-44.531 37.293-52.452 6.199-2.174 12.544-3.236 18.79-3.236 16.467 0 32.303 7.39 43.2 20.962l417.276 520.175c13.513 16.855 16.030 39.364 6.684 58.829z" />
<glyph unicode="&#xe979;" glyph-name="thumbs" horiz-adv-x="832" d="M773.638 429.611l-45.101-296.794c-12.262-80.465-79.27-138.859-159.396-138.859h-329.963c-83.262 0-152.315 63.511-160.584 147.068l-21.243 281.436c-4.182 55.979 31.556 106.837 85.021 120.941 58.17 15.309 106.454 58.345 129.028 115.046l77.749 195.705c7.556 18.885 21.862 33.664 40.444 41.682 9.504 4.105 19.533 6.134 29.559 6.134 9.553 0 19.153-1.836 28.324-5.554 28.134-11.447 47.098-40.039 47.098-71.047 0-10.095-1.807-19.416-5.513-28.738l-76.894-193.484c-3.614-8.934-2.519-19.078 2.756-27.046 5.323-8.017 14.161-12.8 23.618-12.8h222.225c33.408 0 64.964-14.78 86.684-40.474 21.719-25.743 31.223-59.746 26.187-93.216zM790.699 560.548c-32.506 38.59-79.889 60.71-129.931 60.71h-179.881l61.022 153.589c6.558 16.325 9.694 32.843 9.694 50.52 0 54.529-33.314 104.663-82.929 124.803-32.698 13.427-68.721 13.089-101.323-0.966-32.649-14.055-57.931-40.136-71.049-73.414l-77.845-195.657c-15.777-39.75-49.615-69.888-90.39-80.659-80.269-21.105-133.924-97.466-127.555-181.457l21.291-282.11c11.216-113.937 104.696-199.908 217.376-199.908h329.963c108.45 0 199.174 79.066 215.712 187.93l45.148 296.843c7.603 50.229-6.701 101.184-39.302 139.776z" />
<glyph unicode="&#xe97a;" glyph-name="flame" horiz-adv-x="853" d="M689.745 95.731c-80.691-77.088-201.83-114.618-316.307-97.858-103.804 15.168-196.624 74.867-254.669 163.789-57.941 88.823-71.945 192.67-38.315 284.971 7.34 20.143 16.763 39.657 26.081 59.217 16.555 34.583 33.682 70.325 40.814 109.98 9.162 51.006 0.729 101.094-10.62 147.993 79.702-45.692 122.337-143.646 97.558-227.639-3.281-11.157 0.937-23.089 10.671-30.285 9.839-7.294 23.217-8.405 34.202-2.946 42.688 21.154 66.583 59.844 80.847 87.134 52.631 100.755 48.988 193.153 30.558 290.575 112.239-61.293 204.956-191.802 217.344-315.258 4.894-49.218-0.727-99.063-16.815-148.041-13.587-41.538 5.83-84.67 47.217-104.956 39.774-19.514 85.325-10.626 113.331 21.83 12.86 14.829 24.521 30.285 35.036 46.225 17.284-101.385-17.751-209.19-96.932-284.732zM823.588 472.134c-4.789 10.916-16.243 18.065-28.892 18.065h-0.574c-12.858-0.241-24.311-7.776-28.736-18.982-13.743-34.438-35.296-69.263-62.47-100.706-13.171-15.311-29.152-9.95-35.452-6.81-11.349 5.553-22.541 18.547-16.555 36.804 18.377 56.222 24.832 113.506 19.211 170.259-16.555 165.525-153.417 335.784-311.518 387.611-10.62 3.429-22.49 1.352-30.976-5.506-8.484-6.907-12.337-17.533-9.995-27.773 25.248-112.057 40.294-206.050-13.847-309.751l-1.301-2.462c-9.318 84.815-62.835 165.139-144.878 206.677-35.816 18.064-58.566 7.39-68.925-0.724-24.936-19.369-17.335-49.894-14.836-59.989 10.828-43.327 19.782-89.5 11.869-133.503-5.831-32.361-20.615-63.273-36.285-95.972-10.099-21.156-20.199-42.359-28.164-64.241-39.512-108.482-23.478-230.054 44.094-333.515 67.572-103.556 176.321-173.156 298.346-190.978 21.137-3.091 42.428-4.638 63.721-4.638 114.007 0.049 227.443 43.23 307.145 119.349 114.684 109.596 150.5 277.052 89.020 416.785z" />
<glyph unicode="&#xe97b;" glyph-name="inbox" horiz-adv-x="1109" d="M1046.59 83.104c0-46.654-38.148-84.55-84.93-84.55h-813.986c-46.783 0-84.931 37.897-84.931 84.55v229.363h329.206c14.703-76.158 82.103-133.811 162.743-133.811s147.989 57.653 162.692 133.811h329.205v-229.363zM212.72 835.154c10.099 36.646 43.694 62.293 81.947 62.293h520c38.253 0 71.849-25.647 82.208-63.075l138.884-459.351h-346.788c-17.321 0-31.398-13.969-31.398-31.277 0-56.506-46.155-102.534-102.88-102.534s-102.931 46.029-102.931 102.534c0 17.308-14.078 31.277-31.398 31.277h-346.787l139.144 460.133zM1108.235 349.269c-0.209 1.148 0.156 2.347-0.209 3.492l-150.814 498.812c-17.478 63.857-76.087 108.426-142.545 108.426h-520c-66.458 0-125.067-44.569-142.283-107.644l-151.075-499.594c-0.314-1.146 0-2.345-0.209-3.492-0.314-1.875-1.099-3.543-1.099-5.525v-260.64c0-81.109 66.249-147.104 147.674-147.104h813.986c81.476 0 147.674 65.995 147.674 147.104v260.64c0 1.982-0.732 3.65-1.099 5.525z" />
<glyph unicode="&#xe97c;" glyph-name="question" d="M512.012 215.348c25.715 0 46.561 20.839 46.561 46.546s-20.846 46.545-46.561 46.545c-25.714 0-46.56-20.839-46.56-46.545s20.846-46.546 46.56-46.546zM465.456 354.91h93.091c0 37.159 5.838 43.971 44.088 63.095 66.476 33.238 95.548 67.155 95.548 146.359 0 101.44-79.856 162.91-186.182 162.91-102.825 0-186.181-83.357-186.181-186.182h93.091c0 51.412 41.678 93.091 93.090 93.091 59.447 0 93.091-25.899 93.091-69.819 0-37.159-5.838-43.97-44.088-63.095-66.476-33.238-95.548-67.155-95.548-146.359zM0 448c0-282.77 229.23-512 512-512s512 229.23 512 512c0 282.77-229.23 512-512 512s-512-229.23-512-512zM930.91 447.999c0-231.357-187.55-418.909-418.907-418.909s-418.909 187.552-418.909 418.909c0 231.357 187.552 418.909 418.909 418.909s418.907-187.552 418.907-418.909z" />
<glyph unicode="&#xe97d;" glyph-name="box-open" horiz-adv-x="896" d="M308.013 303.68c-12.38 12.427-12.38 32.747 0 45.227l116.815 117.76c2.91 2.88 6.453 5.227 10.317 6.933 7.776 3.2 16.506 3.2 24.284 0 3.861-1.707 7.354-4.053 10.315-6.933l118.244-119.253c12.38-12.427 12.38-32.747 0-45.173-6.191-6.293-14.338-9.387-22.432-9.387-8.147 0-16.241 3.093-22.485 9.387l-64.068 64.587v-203.467c0-17.653-14.178-31.947-31.742-31.947-17.513 0-31.744 14.293-31.744 31.947v203.467l-62.586-63.147c-12.433-12.48-32.538-12.48-44.917 0zM832.514 74.667c0-41.12-33.225-74.667-74.067-74.667h-620.894c-40.843 0-74.067 33.547-74.067 74.667v532.747h769.028v-532.747zM195.061 858.88c13.226 22.933 37.773 37.12 64.069 37.12h157.126v-224.587h-329.333l108.138 187.467zM479.744 896h157.126c26.295 0 50.842-14.187 64.068-37.12l108.139-187.467h-329.333v224.587zM896 639.52c-0.053 5.28-1.641 10.027-3.861 14.4-0.265 0.533-0.16 1.12-0.425 1.6l-135.913 235.573c-24.548 42.507-70.099 68.907-118.931 68.907h-377.741c-48.832 0-94.383-26.4-118.931-68.907l-135.913-235.573c-0.265-0.48-0.159-1.067-0.423-1.6-2.275-4.373-3.809-9.12-3.862-14.4v-564.853c0-76.48 61.687-138.667 137.553-138.667h620.894c75.866 0 137.553 62.187 137.553 138.667v564.853z" />
<glyph unicode="&#xe97e;" glyph-name="lock-open" horiz-adv-x="683" d="M400.821 276.384c0-33.329-26.652-60.378-59.49-60.378s-59.49 27.049-59.49 60.378c0 33.327 26.652 60.375 59.49 60.375s59.49-27.049 59.49-60.375zM341.335-6.037c-156.721 0-284.269 129.402-284.269 288.459s127.548 288.459 284.269 288.459c156.723 0 284.271-129.402 284.271-288.459s-127.548-288.459-284.271-288.459zM341.333 628.843c-52.448 0-101.943-12.414-146.394-33.909v158.286c0 82.065 65.821 148.818 146.633 148.818 38.978 0 75.718-15.408 103.132-43.23 27.699-28.643 42.929-66.125 42.929-105.588 0-15.989 12.755-28.981 28.555-28.981 15.802 0 28.508 12.992 28.508 28.981 0 54.726-21.035 106.699-59.49 146.403-38.359 38.931-89.378 60.377-143.633 60.377-112.32 0-203.697-92.788-203.697-206.78v-193.305c-83.477-63.226-137.875-163.887-137.875-277.493 0-191.034 153.105-346.421 341.333-346.421s341.333 155.388 341.333 346.421c0 191.034-153.105 346.421-341.333 346.421z" />
<glyph unicode="&#xe97f;" glyph-name="gift" horiz-adv-x="853" d="M796.572 350.063h-341.504v256.883l100.919-102.985c5.536-5.7 12.774-8.503 20.060-8.503 7.241 0 14.526 2.803 20.062 8.503 11.117 11.253 11.117 29.609 0 40.913l-100.54 102.694h187.452c62.596 0 113.551-52.023 113.551-115.93v-181.577zM796.572 110.62c0-63.908-50.955-115.932-113.551-115.932h-227.953v297.457h341.504v-181.525zM455.068 803.929c0 54.149 43.104 98.154 96.094 98.154 52.943 0 96.045-44.005 96.045-98.154 0-54.052-43.102-98.058-96.045-98.058h-96.094v98.058zM398.276 705.871h-96.045c-52.99 0-96.093 44.006-96.093 98.058 0 54.149 43.103 98.154 96.093 98.154 52.943 0 96.045-44.005 96.045-98.154v-98.058zM398.272 350.063h-341.503v181.577c0 63.906 50.956 115.93 113.551 115.93h187.5l-100.587-102.694c-11.072-11.305-11.072-29.66 0-40.913 11.072-11.351 29.050-11.351 40.169 0l100.87 102.985v-256.883zM398.272-5.312h-227.952c-62.595 0-113.551 52.023-113.551 115.932v181.525h341.503v-297.457zM683.008 705.485h-13.391c21.481 26.906 34.349 61.154 34.349 98.444 0 86.078-68.555 156.071-152.819 156.071-51.287 0-96.708-25.891-124.48-65.549-27.725 39.658-73.193 65.549-124.433 65.549-84.311 0-152.867-69.993-152.867-156.071 0-37.291 12.869-71.539 34.349-98.444h-13.39c-93.916 0-170.326-77.963-170.326-173.845v-421.020c0-95.885 76.41-173.894 170.326-173.894h250c2.035-0.435 4.164-0.725 6.34-0.725 2.223 0 4.305 0.29 6.34 0.725h250.001c93.916 0 170.325 78.010 170.325 173.894v421.020c0 95.883-76.41 173.845-170.325 173.845z" />
</font>
</defs>
</svg>
