<svg width="53" height="59" viewBox="0 0 53 59" fill="none" xmlns="http://www.w3.org/2000/svg">
<g filter="url(#filter0_d)">
<path d="M32.8162 36.5188L28.1415 37.9436L28.9198 40.4972L23.6776 42.095L22.8992 39.5413L19.9272 40.4471L18.6837 36.3673L21.6558 35.4615L21.4025 34.6304L18.4304 35.5362L17.1823 31.4413L20.1544 30.5355L16.9721 20.0941L25.6046 17.4631C27.2674 16.9563 28.8346 16.8144 30.3063 17.0375C31.788 17.2574 33.0557 17.8289 34.1096 18.7517C35.1604 19.6645 35.9038 20.8361 36.3398 22.2666C37.0121 24.4727 36.7667 26.4522 35.6034 28.2049C34.45 29.9547 32.559 31.2301 29.9304 32.0312L26.6447 33.0327L26.898 33.8637L31.5727 32.439L32.8162 36.5188ZM25.3966 28.9377L28.6077 27.9591C30.838 27.2793 31.6461 25.932 31.0321 23.9173C30.7312 22.9301 30.2098 22.2193 29.4681 21.7848C28.7263 21.3503 27.8709 21.2752 26.9021 21.5595L23.467 22.6064L25.3966 28.9377Z" fill="#EAB93B"/>
<path d="M21.2567 34.1521L18.7629 34.9122L17.8064 31.7738L20.3002 31.0137L20.7785 30.868L20.6327 30.3897L17.5961 20.4266L25.7503 17.9414C27.3536 17.4527 28.8449 17.3217 30.2314 17.5318L30.2329 17.532C31.6265 17.739 32.8036 18.2727 33.7802 19.1279L33.7817 19.1292C34.7563 19.9758 35.4508 21.0648 35.8615 22.4124C36.4951 24.4912 36.2588 26.3132 35.1868 27.9284L35.1859 27.9297C34.1143 29.5554 32.3369 30.7751 29.7847 31.5529L26.4989 32.5544L26.0207 32.7002L26.1664 33.1784L26.4197 34.0095L26.5655 34.4878L27.0438 34.342L31.2402 33.063L32.1921 36.1863L27.9957 37.4653L27.5174 37.6111L27.6632 38.0893L28.2957 40.1647L24.0101 41.4709L23.3775 39.3955L23.2317 38.9172L22.7535 39.063L20.2597 39.8231L19.3077 36.6998L21.8016 35.9398L22.2798 35.794L22.1341 35.3157L21.8808 34.4846L21.735 34.0063L21.2567 34.1521ZM24.9184 29.0835L25.0641 29.5618L25.5424 29.416L28.7535 28.4373C29.931 28.0784 30.8227 27.5172 31.3153 26.696C31.8146 25.8637 31.8439 24.8659 31.5104 23.7716C31.1806 22.6896 30.5919 21.8636 29.7208 21.3533C28.8392 20.837 27.8373 20.764 26.7613 21.0797L26.7613 21.0797L26.7563 21.0812L23.3212 22.1282L22.8429 22.2739L22.9887 22.7522L24.9184 29.0835Z" stroke="#FFF848"/>
</g>
<defs>
<filter id="filter0_d" x="0.972168" y="0.935211" width="51.7371" height="57.1597" filterUnits="userSpaceOnUse" color-interpolation-filters="sRGB">
<feFlood flood-opacity="0" result="BackgroundImageFix"/>
<feColorMatrix in="SourceAlpha" type="matrix" values="0 0 0 0 0 0 0 0 0 0 0 0 0 0 0 0 0 0 127 0"/>
<feOffset/>
<feGaussianBlur stdDeviation="8"/>
<feColorMatrix type="matrix" values="0 0 0 0 0.917647 0 0 0 0 0.313726 0 0 0 0 0.231373 0 0 0 0.5 0"/>
<feBlend mode="normal" in2="BackgroundImageFix" result="effect1_dropShadow"/>
<feBlend mode="normal" in="SourceGraphic" in2="effect1_dropShadow" result="shape"/>
</filter>
</defs>
</svg>
