<svg width="80" height="31" viewBox="0 0 80 31" fill="none" xmlns="http://www.w3.org/2000/svg">
<path fill-rule="evenodd" clip-rule="evenodd" d="M3.72907 18.8224C4.08934 18.8203 5.16003 18.7238 5.61355 20.2545C5.91905 21.2856 6.4057 22.9745 7.07348 25.3213H7.34544C8.06158 22.8471 8.55354 21.1582 8.8213 20.2545C9.27955 18.7079 10.4252 18.8225 10.8834 18.8225L14.4189 18.8225V29.8204H10.8154V23.3391H10.5738L8.56504 29.8204H5.85388L3.84512 23.3343H3.60348V29.8204H0V18.8225L3.72907 18.8224ZM19.5935 18.8225V25.3086H19.8809L22.3244 19.9751C22.7987 18.9137 23.8096 18.8225 23.8096 18.8225H27.2967V29.8204H23.618V23.3343H23.3305L20.935 28.6678C20.4606 29.7244 19.4018 29.8204 19.4018 29.8204H15.9147V18.8225H19.5935ZM40.0121 24.0488C39.499 25.5029 37.8875 26.5443 36.1033 26.5443H32.2455V29.8204H28.7472V24.0488H40.0121Z" fill="#0F754E"/>
<path fill-rule="evenodd" clip-rule="evenodd" d="M36.272 18.8225H28.5637C28.7472 21.271 30.8558 23.3671 33.0386 23.3671H40.2551C40.6716 21.3321 39.238 18.8225 36.272 18.8225Z" fill="url(#paint0_linear_11319_448667)"/>
<path d="M59.8031 29.8641H56.9159L58.7218 18.698H61.6088L59.8031 29.8641Z" fill="white"/>
<path d="M70.2695 18.971C69.7 18.7451 68.7968 18.4956 67.6799 18.4956C64.8287 18.4956 62.8209 20.016 62.8086 22.1898C62.7849 23.7935 64.2461 24.6843 65.339 25.2191C66.456 25.7655 66.8357 26.1221 66.8357 26.6092C66.8243 27.3573 65.9331 27.7021 65.1018 27.7021C63.9491 27.7021 63.3315 27.5243 62.3929 27.1081L62.0127 26.9297L61.6087 29.4363C62.2858 29.7448 63.5334 30.0185 64.8287 30.0305C67.8582 30.0305 69.8304 28.5336 69.8538 26.2172C69.8653 24.9461 69.0937 23.9721 67.4303 23.1762C66.4205 22.6653 65.802 22.3208 65.802 21.798C65.8139 21.3228 66.3251 20.8361 67.465 20.8361C68.4036 20.8122 69.0933 21.0378 69.6157 21.2636L69.8768 21.3822L70.2695 18.971Z" fill="white"/>
<path d="M74.1068 25.9083C74.3446 25.2668 75.2595 22.7841 75.2595 22.7841C75.2475 22.808 75.4968 22.1308 75.6394 21.7151L75.8412 22.6773C75.8412 22.6773 76.3879 25.3501 76.5066 25.9083C76.0554 25.9083 74.6771 25.9083 74.1068 25.9083ZM77.6707 18.698H75.4375C74.7488 18.698 74.2256 18.8997 73.9284 19.6244L69.6398 29.8639H72.6693C72.6693 29.8639 73.1681 28.4858 73.2753 28.1889C73.6076 28.1889 76.5546 28.1889 76.9822 28.1889C77.0651 28.581 77.3267 29.8639 77.3267 29.8639H80L77.6707 18.698Z" fill="white"/>
<path d="M54.5044 18.698L51.6769 26.3122L51.3679 24.7679C50.8451 22.9861 49.2057 21.0501 47.3761 20.0875L49.966 29.8522H53.0192L57.5574 18.698H54.5044Z" fill="white"/>
<path d="M49.0513 18.698H44.406L44.3585 18.9236C47.9821 19.8502 50.3819 22.0833 51.3679 24.7679L50.3581 19.6366C50.1918 18.9234 49.6809 18.7215 49.0513 18.698Z" fill="white"/>
<path d="M2.35488 0.362496L4.60164 7.11441L6.83637 0.362496H9.20327V9.67196H7.39506V7.1272L7.57528 2.73462L5.21439 9.67196H3.97687L1.62199 2.74101L1.80221 7.1272V9.67196H0V0.362496H2.35488Z" fill="#FF5F00"/>
<path d="M15.8234 7.7538H12.6635L12.0628 9.67196H10.1464L13.4024 0.362496H15.0725L18.3465 9.67196H16.4301L15.8234 7.7538ZM13.1501 6.20009H15.3368L14.2374 2.71544L13.1501 6.20009Z" fill="#FF5F00"/>
<path d="M23.699 7.2295C23.699 6.86719 23.5789 6.59012 23.3386 6.3983C23.0983 6.20222 22.6658 5.99762 22.041 5.78449C21.4162 5.5671 20.9216 5.35397 20.5572 5.1451C19.564 4.57392 19.0674 3.80453 19.0674 2.83692C19.0674 2.33394 19.1995 1.88637 19.4638 1.49421C19.7322 1.09779 20.1146 0.788754 20.6112 0.5671C21.1119 0.345446 21.6725 0.234619 22.2933 0.234619C22.9181 0.234619 23.4748 0.356103 23.9634 0.599069C24.452 0.837773 24.8304 1.17665 25.0987 1.61569C25.3711 2.05474 25.5072 2.55346 25.5072 3.11186H23.705C23.705 2.6856 23.5789 2.35525 23.3266 2.12081C23.0743 1.8821 22.7198 1.76275 22.2633 1.76275C21.8227 1.76275 21.4803 1.86292 21.236 2.06326C20.9917 2.25934 20.8696 2.51936 20.8696 2.84331C20.8696 3.14596 21.0117 3.39958 21.2961 3.60418C21.5844 3.80879 22.007 4.0006 22.5636 4.17963C23.5889 4.50785 24.3358 4.91493 24.8044 5.40086C25.273 5.88679 25.5072 6.49208 25.5072 7.21672C25.5072 8.02234 25.2209 8.65534 24.6482 9.11569C24.0755 9.57179 23.3045 9.79984 22.3354 9.79984C21.6625 9.79984 21.0498 9.66983 20.4971 9.40981C19.9444 9.14553 19.5219 8.78534 19.2296 8.32925C18.9412 7.87315 18.797 7.34459 18.797 6.74357H20.6052C20.6052 7.77085 21.1819 8.28449 22.3354 8.28449C22.7639 8.28449 23.0983 8.19285 23.3386 8.00955C23.5789 7.822 23.699 7.56198 23.699 7.2295Z" fill="#FF5F00"/>
<path d="M33.3168 1.9162H30.6375V9.67196H28.8353V1.9162H26.1921V0.362496H33.3168V1.9162Z" fill="#FF5F00"/>
<path d="M39.6125 5.63743H36.1523V8.13104H40.2133V9.67196H34.3501V0.362496H40.2012V1.9162H36.1523V4.13487H39.6125V5.63743Z" fill="#FF5F00"/>
<path d="M44.5085 6.26403H43.0728V9.67196H41.2706V0.362496H44.5205C45.5538 0.362496 46.3508 0.607594 46.9115 1.09779C47.4722 1.58799 47.7525 2.28065 47.7525 3.1758C47.7525 3.81092 47.6223 4.34161 47.362 4.76787C47.1057 5.18986 46.7152 5.52661 46.1906 5.7781L48.0829 9.58245V9.67196H46.1485L44.5085 6.26403ZM43.0728 4.71032H44.5265C44.9791 4.71032 45.3295 4.58884 45.5778 4.34587C45.8261 4.09864 45.9503 3.75977 45.9503 3.32925C45.9503 2.8902 45.8321 2.54493 45.5959 2.29344C45.3636 2.04195 45.0051 1.9162 44.5205 1.9162H43.0728V4.71032Z" fill="#FF5F00"/>
<path d="M55.9946 6.57094C55.9265 7.57264 55.5781 8.36122 54.9493 8.93666C54.3245 9.51211 53.4995 9.79984 52.4743 9.79984C51.3529 9.79984 50.4698 9.39915 49.825 8.59779C49.1842 7.79216 48.8639 6.68816 48.8639 5.28577V4.71672C48.8639 3.82158 49.012 3.033 49.3084 2.35099C49.6048 1.66898 50.0273 1.14681 50.576 0.784491C51.1286 0.41791 51.7694 0.234619 52.4983 0.234619C53.5075 0.234619 54.3205 0.522343 54.9373 1.09779C55.5541 1.67324 55.9105 2.481 56.0066 3.52106H54.2044C54.1603 2.92004 54.0022 2.48526 53.7298 2.21672C53.4615 1.94391 53.051 1.80751 52.4983 1.80751C51.8976 1.80751 51.447 2.03769 51.1467 2.49805C50.8503 2.95414 50.6981 3.66386 50.6901 4.6272V5.33053C50.6901 6.33649 50.8323 7.07179 51.1166 7.53641C51.405 8.00103 51.8575 8.23334 52.4743 8.23334C53.031 8.23334 53.4455 8.09907 53.7178 7.83053C53.9941 7.55772 54.1523 7.13786 54.1924 6.57094H55.9946Z" fill="#FF5F00"/>
<path d="M62.1161 7.7538H58.9562L58.3555 9.67196H56.4391L59.6951 0.362496H61.3652L64.6392 9.67196H62.7228L62.1161 7.7538ZM59.4428 6.20009H61.6295L60.5301 2.71544L59.4428 6.20009Z" fill="#FF5F00"/>
<path d="M68.6941 6.26403H67.2584V9.67196H65.4562V0.362496H68.7062C69.7394 0.362496 70.5364 0.607594 71.0971 1.09779C71.6578 1.58799 71.9381 2.28065 71.9381 3.1758C71.9381 3.81092 71.808 4.34161 71.5476 4.76787C71.2913 5.18986 70.9008 5.52661 70.3762 5.7781L72.2685 9.58245V9.67196H70.3342L68.6941 6.26403ZM67.2584 4.71032H68.7122C69.1647 4.71032 69.5152 4.58884 69.7635 4.34587C70.0118 4.09864 70.1359 3.75977 70.1359 3.32925C70.1359 2.8902 70.0178 2.54493 69.7815 2.29344C69.5492 2.04195 69.1908 1.9162 68.7062 1.9162H67.2584V4.71032Z" fill="#FF5F00"/>
<path d="M73.3138 9.67196V0.362496H76.0051C76.774 0.362496 77.4609 0.547918 78.0656 0.918762C78.6744 1.28534 79.149 1.80964 79.4894 2.49165C79.8298 3.1694 80 3.94093 80 4.80623V5.23462C80 6.09992 79.8318 6.86932 79.4954 7.5428C79.163 8.21629 78.6924 8.73845 78.0836 9.1093C77.4749 9.48014 76.7881 9.6677 76.0231 9.67196H73.3138ZM75.116 1.9162V8.13104H75.9871C76.6919 8.13104 77.2306 7.88594 77.6031 7.39574C77.9755 6.90555 78.1657 6.20435 78.1738 5.29216V4.79984C78.1738 3.85354 77.9895 3.13743 77.6211 2.6515C77.2526 2.1613 76.714 1.9162 76.0051 1.9162H75.116Z" fill="#FF5F00"/>
<defs>
<linearGradient id="paint0_linear_11319_448667" x1="40.3259" y1="21.6813" x2="28.5637" y2="21.6813" gradientUnits="userSpaceOnUse">
<stop stop-color="#1F5CD7"/>
<stop offset="1" stop-color="#02AEFF"/>
</linearGradient>
</defs>
</svg>
