<svg width="80" height="34" viewBox="0 0 80 34" fill="none" xmlns="http://www.w3.org/2000/svg">
<path d="M15.4446 15.3685H12.5574L14.3632 4.20237H17.2503L15.4446 15.3685Z" fill="white"/>
<path d="M25.911 4.47539C25.3415 4.24946 24.4382 4 23.3214 4C20.4702 4 18.4624 5.52041 18.4501 7.69415C18.4264 9.29792 19.8876 10.1887 20.9804 10.7234C22.0975 11.2699 22.4772 11.6265 22.4772 12.1136C22.4658 12.8617 21.5746 13.2065 20.7433 13.2065C19.5906 13.2065 18.973 13.0287 18.0344 12.6125L17.6542 12.4341L17.2501 14.9407C17.9273 15.2492 19.1749 15.5229 20.4702 15.5349C23.4996 15.5349 25.4719 14.038 25.4953 11.7216C25.5068 10.4505 24.7352 9.47649 23.0718 8.6806C22.0619 8.16969 21.4435 7.82519 21.4435 7.30244C21.4554 6.82721 21.9666 6.34046 23.1065 6.34046C24.0451 6.31662 24.7347 6.54223 25.2572 6.768L25.5183 6.88657L25.911 4.47539Z" fill="white"/>
<path d="M29.7483 11.4127C29.9861 10.7712 30.901 8.28853 30.901 8.28853C30.889 8.31238 31.1383 7.63521 31.2809 7.21951L31.4827 8.18165C31.4827 8.18165 32.0294 10.8544 32.1481 11.4127C31.6969 11.4127 30.3186 11.4127 29.7483 11.4127ZM33.3122 4.20237H31.0789C30.3903 4.20237 29.867 4.40414 29.5699 5.12882L25.2813 15.3683H28.3108C28.3108 15.3683 28.8095 13.9902 28.9167 13.6933C29.2491 13.6933 32.1961 13.6933 32.6237 13.6933C32.7066 14.0854 32.9682 15.3683 32.9682 15.3683H35.6414L33.3122 4.20237Z" fill="white"/>
<path d="M10.1459 4.20237L7.31835 11.8166L7.00937 10.2723C6.48662 8.49047 4.84716 6.55451 3.01761 5.59189L5.60753 15.3566H8.66067L13.1989 4.20237H10.1459Z" fill="white"/>
<path d="M4.69276 4.20237H0.0475226L0 4.42798C3.62357 5.35459 6.02339 7.58769 7.00937 10.2723L5.99955 5.14098C5.8333 4.42782 5.32239 4.22589 4.69276 4.20237Z" fill="white"/>
<path d="M68.691 2.04932H60.3091V17.1101H68.691V2.04932Z" fill="#FF5F00"/>
<path d="M60.8411 9.57953C60.8411 6.51948 62.2779 3.80535 64.4865 2.04915C62.8633 0.771912 60.8145 0.000244141 58.5793 0.000244141C53.2841 0.000244141 49 4.28431 49 9.57953C49 14.8747 53.2841 19.1588 58.5793 19.1588C60.8145 19.1588 62.8633 18.3872 64.4865 17.1099C62.2779 15.3803 60.8411 12.6396 60.8411 9.57953Z" fill="#EB001B"/>
<path d="M79.9998 9.57929C79.9998 14.8745 75.7158 19.1586 70.4205 19.1586C68.1854 19.1586 66.1365 18.3869 64.5133 17.1097C66.7485 15.3535 68.1588 12.6393 68.1588 9.57929C68.1588 6.51924 66.7219 3.80511 64.5133 2.04891C66.1365 0.771668 68.1854 0 70.4205 0C75.7158 0 79.9998 4.31068 79.9998 9.57929Z" fill="#F79E1B"/>
<path d="M2.35488 24.1279L4.60164 30.8798L6.83637 24.1279H9.20327V33.4373H7.39506V30.8926L7.57528 26.5L5.21439 33.4373H3.97687L1.62199 26.5064L1.80221 30.8926V33.4373H0V24.1279H2.35488Z" fill="#FF5F00"/>
<path d="M15.8234 31.5192H12.6635L12.0628 33.4373H10.1464L13.4024 24.1279H15.0725L18.3465 33.4373H16.4301L15.8234 31.5192ZM13.1501 29.9655H15.3368L14.2374 26.4808L13.1501 29.9655Z" fill="#FF5F00"/>
<path d="M23.699 30.9949C23.699 30.6326 23.5789 30.3555 23.3386 30.1637C23.0983 29.9676 22.6658 29.763 22.041 29.5499C21.4162 29.3325 20.9216 29.1194 20.5572 28.9105C19.564 28.3393 19.0674 27.5699 19.0674 26.6023C19.0674 26.0993 19.1995 25.6517 19.4638 25.2596C19.7322 24.8632 20.1146 24.5541 20.6112 24.3325C21.1119 24.1108 21.6725 24 22.2933 24C22.9181 24 23.4748 24.1215 23.9634 24.3645C24.452 24.6032 24.8304 24.942 25.0987 25.3811C25.3711 25.8201 25.5072 26.3188 25.5072 26.8772H23.705C23.705 26.451 23.5789 26.1206 23.3266 25.8862C23.0743 25.6475 22.7198 25.5281 22.2633 25.5281C21.8227 25.5281 21.4803 25.6283 21.236 25.8286C20.9917 26.0247 20.8696 26.2847 20.8696 26.6087C20.8696 26.9113 21.0117 27.165 21.2961 27.3696C21.5844 27.5742 22.007 27.766 22.5636 27.945C23.5889 28.2732 24.3358 28.6803 24.8044 29.1662C25.273 29.6522 25.5072 30.2575 25.5072 30.9821C25.5072 31.7877 25.2209 32.4207 24.6482 32.8811C24.0755 33.3372 23.3045 33.5652 22.3354 33.5652C21.6625 33.5652 21.0498 33.4352 20.4971 33.1752C19.9444 32.9109 19.5219 32.5507 19.2296 32.0946C18.9412 31.6385 18.797 31.11 18.797 30.509H20.6052C20.6052 31.5362 21.1819 32.0499 22.3354 32.0499C22.7639 32.0499 23.0983 31.9582 23.3386 31.7749C23.5789 31.5874 23.699 31.3274 23.699 30.9949Z" fill="#FF5F00"/>
<path d="M33.3168 25.6816H30.6375V33.4373H28.8353V25.6816H26.1921V24.1279H33.3168V25.6816Z" fill="#FF5F00"/>
<path d="M39.6125 29.4028H36.1523V31.8964H40.2133V33.4373H34.3501V24.1279H40.2012V25.6816H36.1523V27.9003H39.6125V29.4028Z" fill="#FF5F00"/>
<path d="M44.5085 30.0294H43.0728V33.4373H41.2706V24.1279H44.5205C45.5538 24.1279 46.3508 24.373 46.9115 24.8632C47.4722 25.3534 47.7525 26.046 47.7525 26.9412C47.7525 27.5763 47.6223 28.107 47.362 28.5332C47.1057 28.9552 46.7152 29.292 46.1906 29.5435L48.0829 33.3478V33.4373H46.1485L44.5085 30.0294ZM43.0728 28.4757H44.5265C44.9791 28.4757 45.3295 28.3542 45.5778 28.1113C45.8261 27.864 45.9503 27.5251 45.9503 27.0946C45.9503 26.6556 45.8321 26.3103 45.5959 26.0588C45.3636 25.8073 45.0051 25.6816 44.5205 25.6816H43.0728V28.4757Z" fill="#FF5F00"/>
<path d="M55.9946 30.3363C55.9265 31.338 55.5781 32.1266 54.9493 32.702C54.3245 33.2775 53.4995 33.5652 52.4743 33.5652C51.3529 33.5652 50.4698 33.1645 49.825 32.3632C49.1842 31.5575 48.8639 30.4535 48.8639 29.0512V28.4821C48.8639 27.587 49.012 26.7984 49.3084 26.1164C49.6048 25.4344 50.0273 24.9122 50.576 24.5499C51.1286 24.1833 51.7694 24 52.4983 24C53.5075 24 54.3205 24.2877 54.9373 24.8632C55.5541 25.4386 55.9105 26.2464 56.0066 27.2864H54.2044C54.1603 26.6854 54.0022 26.2506 53.7298 25.9821C53.4615 25.7093 53.051 25.5729 52.4983 25.5729C51.8976 25.5729 51.447 25.8031 51.1467 26.2634C50.8503 26.7195 50.6981 27.4292 50.6901 28.3926V29.0959C50.6901 30.1019 50.8323 30.8372 51.1166 31.3018C51.405 31.7664 51.8575 31.9987 52.4743 31.9987C53.031 31.9987 53.4455 31.8644 53.7178 31.5959C53.9941 31.3231 54.1523 30.9032 54.1924 30.3363H55.9946Z" fill="#FF5F00"/>
<path d="M62.1161 31.5192H58.9562L58.3555 33.4373H56.4391L59.6951 24.1279H61.3652L64.6392 33.4373H62.7228L62.1161 31.5192ZM59.4428 29.9655H61.6295L60.5301 26.4808L59.4428 29.9655Z" fill="#FF5F00"/>
<path d="M68.6941 30.0294H67.2584V33.4373H65.4562V24.1279H68.7062C69.7394 24.1279 70.5364 24.373 71.0971 24.8632C71.6578 25.3534 71.9381 26.046 71.9381 26.9412C71.9381 27.5763 71.808 28.107 71.5476 28.5332C71.2913 28.9552 70.9009 29.292 70.3762 29.5435L72.2685 33.3478V33.4373H70.3342L68.6941 30.0294ZM67.2584 28.4757H68.7122C69.1647 28.4757 69.5152 28.3542 69.7635 28.1113C70.0118 27.864 70.1359 27.5251 70.1359 27.0946C70.1359 26.6556 70.0178 26.3103 69.7815 26.0588C69.5492 25.8073 69.1908 25.6816 68.7062 25.6816H67.2584V28.4757Z" fill="#FF5F00"/>
<path d="M73.3138 33.4373V24.1279H76.0051C76.774 24.1279 77.4609 24.3133 78.0656 24.6841C78.6744 25.0507 79.149 25.575 79.4894 26.257C79.8298 26.9348 80 27.7063 80 28.5716V29C80 29.8653 79.8318 30.6347 79.4954 31.3082C79.163 31.9817 78.6924 32.5038 78.0837 32.8747C77.4749 33.2455 76.7881 33.4331 76.0231 33.4373H73.3138ZM75.116 25.6816V31.8964H75.9871C76.6919 31.8964 77.2306 31.6513 77.6031 31.1611C77.9755 30.6709 78.1658 29.9697 78.1738 29.0575V28.5652C78.1738 27.6189 77.9895 26.9028 77.6211 26.4169C77.2526 25.9267 76.714 25.6816 76.0051 25.6816H75.116Z" fill="#FF5F00"/>
</svg>
