<svg width="80" height="17" viewBox="0 0 80 17" fill="none" xmlns="http://www.w3.org/2000/svg">
<path d="M77.7157 4.62152L75.8567 9.18989C75.8034 9.24302 75.8034 9.34926 75.8034 9.40239L75.7504 9.50862L75.6971 9.40239C75.6971 9.34926 75.6441 9.24302 75.6441 9.18989L73.7848 4.62152H71.3945L74.5285 12.4303L73.2005 15.405H75.5911L80 4.62152H77.7157Z" fill="white"/>
<path d="M60.0796 5.04651C59.6546 4.72778 59.1233 4.51532 58.4859 4.46219C57.4234 4.35596 56.414 4.72778 55.7234 5.41836V4.56842H53.5455V12.3772H55.7234V8.28688C55.7234 7.38384 55.883 7.11822 56.0424 6.90575C56.308 6.48077 56.786 6.2683 57.3703 6.2683C57.9546 6.2683 58.4859 6.5339 58.7513 6.95885C58.9109 7.27758 58.964 7.70256 58.964 7.91503C58.964 8.6056 58.964 12.3772 58.964 12.3772H61.1419V7.64943C61.1419 6.42766 60.8232 5.57772 60.0796 5.04651Z" fill="white"/>
<path d="M49.4555 4.67469C48.3929 4.30284 47.2243 4.35597 46.162 4.83405C45.4713 5.15278 44.834 5.68399 44.462 6.37454C44.0903 6.95889 43.9307 7.70257 43.9307 8.49938C43.9307 9.29619 44.0903 10.0399 44.462 10.6242C44.834 11.2085 45.312 11.7398 45.9493 12.0585C46.5869 12.3772 47.3306 12.5897 48.0212 12.5897C48.3929 12.5897 48.7649 12.5366 49.1366 12.4303C49.4555 12.3241 49.7742 12.2178 50.0929 12.0585C50.7302 11.6866 51.2615 11.2085 51.5802 10.6242C51.9521 10.0399 52.1115 9.29619 52.1115 8.49938C52.1115 6.7464 51.1022 5.25901 49.4555 4.67469ZM50.0398 8.60561C49.9865 9.29619 49.7742 9.88054 49.3492 10.2524C49.0305 10.518 48.5523 10.6773 47.9679 10.7305C47.3836 10.7305 46.9586 10.5711 46.5869 10.2524C46.162 9.88054 45.9493 9.29619 45.8963 8.60561C45.8433 7.8088 46.162 7.17136 46.7463 6.7464C47.0649 6.53391 47.4899 6.37454 47.9149 6.37454C48.3929 6.37454 48.7649 6.53391 49.1366 6.7464C49.7742 7.11825 50.0929 7.8088 50.0398 8.60561Z" fill="white"/>
<path d="M41.3811 5.04649C40.9561 4.72777 40.4248 4.51528 39.7875 4.46215C39.6812 4.46215 39.5218 4.46215 39.4155 4.46215C38.5655 4.46215 37.8219 4.834 37.1846 5.57768L37.0782 5.73705H36.8656C36.7063 5.47145 36.4939 5.25896 36.2813 5.0996C35.8563 4.78087 35.3253 4.56841 34.6877 4.51528C33.6784 4.40905 32.8817 4.72777 32.1911 5.47145V4.67464H30.0131V12.4834H32.1911V8.28684C32.1911 7.43693 32.2974 7.22443 32.4567 6.95884C32.7224 6.53386 33.2004 6.26826 33.7317 6.32139C34.2627 6.32139 34.741 6.58699 35.0066 7.01194C35.219 7.33067 35.219 7.70252 35.219 8.07437V12.4303H37.3969V8.23374C37.3969 7.43693 37.5032 7.1713 37.6626 6.90571C37.9282 6.48075 38.4062 6.26826 38.9375 6.26826C39.4685 6.26826 39.8935 6.53386 40.1592 6.95884C40.3185 7.22443 40.3718 7.54316 40.3718 7.75565C40.3718 7.86188 40.3718 7.96812 40.3718 8.02125V12.3772H42.5497V7.59629C42.5497 7.1713 42.4964 6.74635 42.3904 6.37449C42.1778 5.8433 41.8591 5.36522 41.3811 5.04649Z" fill="white"/>
<path d="M69.3224 10.0398C69.0037 10.3586 68.26 10.9429 67.2507 10.996C66.4008 11.0491 65.7634 10.7835 65.2851 10.3054C65.0728 10.0929 64.9135 9.77422 64.8071 9.45549H70.8099V9.40239C70.863 9.08366 70.916 8.81804 70.916 8.49932C70.916 8.23372 70.863 7.86187 70.7566 7.38378C70.491 6.48074 69.96 5.79016 69.2693 5.25895C68.4724 4.67463 67.7287 4.51527 67.5164 4.51527C65.9758 4.24967 64.2228 4.94022 63.3198 6.37448C62.6822 7.38378 62.7355 8.39309 62.7355 8.71181C62.7355 9.08366 62.7885 10.2523 63.7448 11.3147C64.8604 12.5365 66.4008 12.5896 66.8788 12.6428C69.0037 12.6959 70.438 11.3678 70.7566 11.1022L69.3224 10.0398ZM65.6041 6.74634C65.9228 6.53384 66.2944 6.37448 66.7727 6.37448C67.2507 6.37448 67.6227 6.53384 67.9944 6.74634C68.3131 7.01193 68.5787 7.33065 68.738 7.70251H64.9135C65.0198 7.33065 65.2321 6.95883 65.6041 6.74634Z" fill="white"/>
<path d="M15.2459 0C10.5713 0 6.85281 3.77159 6.85281 8.39309C6.85281 13.0677 10.6244 16.7862 15.2459 16.7862C19.8674 16.7862 23.639 13.0146 23.639 8.39309C23.639 3.77159 19.8674 0 15.2459 0ZM15.2459 11.4741C13.546 11.4741 12.1118 10.0398 12.1118 8.33996C12.1118 6.64011 13.546 5.20585 15.2459 5.20585C16.9458 5.20585 18.38 6.64011 18.38 8.33996C18.3269 10.0929 16.9458 11.4741 15.2459 11.4741Z" fill="white"/>
<path d="M6.79947 2.39048V14.6083H3.82469L0 2.39048H6.79947Z" fill="white"/>
</svg>
